solid OpenSCAD_Model
  facet normal -1 0 0
    outer loop
      vertex 0 0 0
      vertex 0 0 3
      vertex 0 101 0
    endloop
  endfacet
  facet normal -1 0 0
    outer loop
      vertex 0 101 0
      vertex 0 0 3
      vertex 0 101 3
    endloop
  endfacet
  facet normal 0 -1 0
    outer loop
      vertex 0 0 3
      vertex 0 0 0
      vertex 152 0 0
    endloop
  endfacet
  facet normal 0 -1 0
    outer loop
      vertex 152 0 3
      vertex 0 0 3
      vertex 152 0 0
    endloop
  endfacet
  facet normal 0 0 -1
    outer loop
      vertex 0 0 0
      vertex 0 101 0
      vertex 152 0 0
    endloop
  endfacet
  facet normal 0 0 -1
    outer loop
      vertex 152 0 0
      vertex 0 101 0
      vertex 152 101 0
    endloop
  endfacet
  facet normal 0 1 0
    outer loop
      vertex 151 101 1
      vertex 152 101 0
      vertex 1 101 1
    endloop
  endfacet
  facet normal 0 1 0
    outer loop
      vertex 1 101 2
      vertex 0 101 3
      vertex 2 101 2
    endloop
  endfacet
  facet normal 0 1 0
    outer loop
      vertex 0 101 0
      vertex 0 101 3
      vertex 1 101 2
    endloop
  endfacet
  facet normal 0 1 0
    outer loop
      vertex 0 101 0
      vertex 1 101 2
      vertex 1 101 1
    endloop
  endfacet
  facet normal 0 1 0
    outer loop
      vertex 0 101 0
      vertex 1 101 1
      vertex 152 101 0
    endloop
  endfacet
  facet normal 0 1 0
    outer loop
      vertex 150 101 3
      vertex 151 101 2
      vertex 150 101 2
    endloop
  endfacet
  facet normal 0 1 0
    outer loop
      vertex 152 101 0
      vertex 151 101 1
      vertex 151 101 2
    endloop
  endfacet
  facet normal 0 1 0
    outer loop
      vertex 151 101 2
      vertex 150 101 3
      vertex 152 101 3
    endloop
  endfacet
  facet normal 0 1 0
    outer loop
      vertex 151 101 2
      vertex 152 101 3
      vertex 152 101 0
    endloop
  endfacet
  facet normal 0 1 0
    outer loop
      vertex 2 101 2
      vertex 0 101 3
      vertex 2 101 3
    endloop
  endfacet
  facet normal 0 0 1
    outer loop
      vertex 2 2 3
      vertex 0 0 3
      vertex 152 0 3
    endloop
  endfacet
  facet normal 0 0 1
    outer loop
      vertex 2 2 3
      vertex 2 101 3
      vertex 0 101 3
    endloop
  endfacet
  facet normal 0 0 1
    outer loop
      vertex 152 101 3
      vertex 150 101 3
      vertex 152 0 3
    endloop
  endfacet
  facet normal 0 0 1
    outer loop
      vertex 150 101 3
      vertex 150 2 3
      vertex 152 0 3
    endloop
  endfacet
  facet normal 0 0 1
    outer loop
      vertex 0 101 3
      vertex 0 0 3
      vertex 2 2 3
    endloop
  endfacet
  facet normal 0 0 1
    outer loop
      vertex 150 2 3
      vertex 2 2 3
      vertex 152 0 3
    endloop
  endfacet
  facet normal 1 0 0
    outer loop
      vertex 152 0 3
      vertex 152 0 0
      vertex 152 101 0
    endloop
  endfacet
  facet normal 1 0 0
    outer loop
      vertex 152 101 3
      vertex 152 0 3
      vertex 152 101 0
    endloop
  endfacet
  facet normal -1 0 0
    outer loop
      vertex 150 101 3
      vertex 150 101 2
      vertex 150 2 3
    endloop
  endfacet
  facet normal -1 0 0
    outer loop
      vertex 150 2 3
      vertex 150 101 2
      vertex 150 2 2
    endloop
  endfacet
  facet normal 0 0 -1
    outer loop
      vertex 2 101 2
      vertex 2 2 2
      vertex 1 101 2
    endloop
  endfacet
  facet normal 0 0 -1
    outer loop
      vertex 1 1 2
      vertex 2 2 2
      vertex 151 1 2
    endloop
  endfacet
  facet normal 0 0 -1
    outer loop
      vertex 151 101 2
      vertex 150 2 2
      vertex 150 101 2
    endloop
  endfacet
  facet normal 0 0 -1
    outer loop
      vertex 151 1 2
      vertex 150 2 2
      vertex 151 101 2
    endloop
  endfacet
  facet normal 0 0 -1
    outer loop
      vertex 2 2 2
      vertex 150 2 2
      vertex 151 1 2
    endloop
  endfacet
  facet normal 0 0 -1
    outer loop
      vertex 1 101 2
      vertex 2 2 2
      vertex 1 1 2
    endloop
  endfacet
  facet normal -1 0 0
    outer loop
      vertex 151 101 2
      vertex 151 101 1
      vertex 151 1 2
    endloop
  endfacet
  facet normal -1 0 0
    outer loop
      vertex 151 1 2
      vertex 151 101 1
      vertex 151 1 1
    endloop
  endfacet
  facet normal 0 0 1
    outer loop
      vertex 151 1 1
      vertex 151 101 1
      vertex 1 101 1
    endloop
  endfacet
  facet normal 0 0 1
    outer loop
      vertex 1 1 1
      vertex 151 1 1
      vertex 1 101 1
    endloop
  endfacet
  facet normal 1 0 0
    outer loop
      vertex 1 101 1
      vertex 1 101 2
      vertex 1 1 2
    endloop
  endfacet
  facet normal 1 0 0
    outer loop
      vertex 1 1 1
      vertex 1 101 1
      vertex 1 1 2
    endloop
  endfacet
  facet normal 1 0 0
    outer loop
      vertex 2 101 2
      vertex 2 101 3
      vertex 2 2 3
    endloop
  endfacet
  facet normal 1 0 0
    outer loop
      vertex 2 2 2
      vertex 2 101 2
      vertex 2 2 3
    endloop
  endfacet
  facet normal 0 1 0
    outer loop
      vertex 150 2 3
      vertex 150 2 2
      vertex 2 2 3
    endloop
  endfacet
  facet normal 0 1 0
    outer loop
      vertex 2 2 3
      vertex 150 2 2
      vertex 2 2 2
    endloop
  endfacet
  facet normal 0 1 0
    outer loop
      vertex 151 1 2
      vertex 151 1 1
      vertex 1 1 2
    endloop
  endfacet
  facet normal 0 1 0
    outer loop
      vertex 1 1 2
      vertex 151 1 1
      vertex 1 1 1
    endloop
  endfacet
  facet normal 0 0 -1
    outer loop
      vertex 70 113 0
      vertex 70.3806 114.913 0
      vertex 70.3806 111.087 0
    endloop
  endfacet
  facet normal 0 0 -1
    outer loop
      vertex 70.3806 111.087 0
      vertex 70.3806 114.913 0
      vertex 71.4645 116.536 0
    endloop
  endfacet
  facet normal 0 0 -1
    outer loop
      vertex 70.3806 111.087 0
      vertex 71.4645 116.536 0
      vertex 73.0866 117.619 0
    endloop
  endfacet
  facet normal 0 0 -1
    outer loop
      vertex 72.5729 114.763 0
      vertex 73.0866 117.619 0
      vertex 75 118 0
    endloop
  endfacet
  facet normal 0 0 -1
    outer loop
      vertex 74.0729 115.853 0
      vertex 75 118 0
      vertex 76.9134 117.619 0
    endloop
  endfacet
  facet normal 0 0 -1
    outer loop
      vertex 75.9271 115.853 0
      vertex 76.9134 117.619 0
      vertex 78.5355 116.536 0
    endloop
  endfacet
  facet normal 0 0 -1
    outer loop
      vertex 77.4271 114.763 0
      vertex 78.5355 116.536 0
      vertex 79.6194 114.913 0
    endloop
  endfacet
  facet normal 0 0 -1
    outer loop
      vertex 78 113 0
      vertex 79.6194 114.913 0
      vertex 80 113 0
    endloop
  endfacet
  facet normal 0 0 -1
    outer loop
      vertex 77.4271 111.237 0
      vertex 80 113 0
      vertex 79.6194 111.087 0
    endloop
  endfacet
  facet normal 0 0 -1
    outer loop
      vertex 75.9271 110.147 0
      vertex 79.6194 111.087 0
      vertex 78.5355 109.464 0
    endloop
  endfacet
  facet normal 0 0 -1
    outer loop
      vertex 74.0729 110.147 0
      vertex 78.5355 109.464 0
      vertex 76.9134 108.381 0
    endloop
  endfacet
  facet normal 0 0 -1
    outer loop
      vertex 70.3806 111.087 0
      vertex 76.9134 108.381 0
      vertex 75 108 0
    endloop
  endfacet
  facet normal 0 0 -1
    outer loop
      vertex 70.3806 111.087 0
      vertex 75 108 0
      vertex 73.0866 108.381 0
    endloop
  endfacet
  facet normal 0 0 -1
    outer loop
      vertex 70.3806 111.087 0
      vertex 73.0866 108.381 0
      vertex 71.4645 109.464 0
    endloop
  endfacet
  facet normal 0 0 -1
    outer loop
      vertex 72.5729 111.237 0
      vertex 70.3806 111.087 0
      vertex 72 113 0
    endloop
  endfacet
  facet normal 0 0 -1
    outer loop
      vertex 74.0729 110.147 0
      vertex 70.3806 111.087 0
      vertex 72.5729 111.237 0
    endloop
  endfacet
  facet normal 0 0 -1
    outer loop
      vertex 77.4271 111.237 0
      vertex 79.6194 111.087 0
      vertex 75.9271 110.147 0
    endloop
  endfacet
  facet normal 0 0 -1
    outer loop
      vertex 70.3806 111.087 0
      vertex 74.0729 110.147 0
      vertex 76.9134 108.381 0
    endloop
  endfacet
  facet normal 0 0 -1
    outer loop
      vertex 78 113 0
      vertex 80 113 0
      vertex 77.4271 111.237 0
    endloop
  endfacet
  facet normal 0 0 -1
    outer loop
      vertex 75.9271 110.147 0
      vertex 78.5355 109.464 0
      vertex 74.0729 110.147 0
    endloop
  endfacet
  facet normal 0 0 -1
    outer loop
      vertex 72.5729 114.763 0
      vertex 75 118 0
      vertex 74.0729 115.853 0
    endloop
  endfacet
  facet normal 0 0 -1
    outer loop
      vertex 70.3806 111.087 0
      vertex 73.0866 117.619 0
      vertex 72.5729 114.763 0
    endloop
  endfacet
  facet normal 0 0 -1
    outer loop
      vertex 72 113 0
      vertex 70.3806 111.087 0
      vertex 72.5729 114.763 0
    endloop
  endfacet
  facet normal 0 0 -1
    outer loop
      vertex 74.0729 115.853 0
      vertex 76.9134 117.619 0
      vertex 75.9271 115.853 0
    endloop
  endfacet
  facet normal 0 0 -1
    outer loop
      vertex 75.9271 115.853 0
      vertex 78.5355 116.536 0
      vertex 77.4271 114.763 0
    endloop
  endfacet
  facet normal 0 0 -1
    outer loop
      vertex 77.4271 114.763 0
      vertex 79.6194 114.913 0
      vertex 78 113 0
    endloop
  endfacet
  facet normal -0.980785 0.19509 0
    outer loop
      vertex 70 113 0
      vertex 70 113 1
      vertex 70.3806 114.913 0
    endloop
  endfacet
  facet normal -0.980785 0.19509 0
    outer loop
      vertex 70.3806 114.913 0
      vertex 70 113 1
      vertex 70.3806 114.913 1
    endloop
  endfacet
  facet normal -0.980785 -0.19509 0
    outer loop
      vertex 70 113 0
      vertex 70.3806 111.087 0
      vertex 70 113 1
    endloop
  endfacet
  facet normal -0.980785 -0.19509 0
    outer loop
      vertex 70 113 1
      vertex 70.3806 111.087 0
      vertex 70.3806 111.087 1
    endloop
  endfacet
  facet normal -0.83147 -0.55557 0
    outer loop
      vertex 70.3806 111.087 0
      vertex 71.4645 109.464 0
      vertex 70.3806 111.087 1
    endloop
  endfacet
  facet normal -0.83147 -0.55557 0
    outer loop
      vertex 70.3806 111.087 1
      vertex 71.4645 109.464 0
      vertex 71.4645 109.464 1
    endloop
  endfacet
  facet normal -0.55557 -0.83147 0
    outer loop
      vertex 71.4645 109.464 1
      vertex 71.4645 109.464 0
      vertex 73.0866 108.381 0
    endloop
  endfacet
  facet normal -0.55557 -0.83147 0
    outer loop
      vertex 73.0866 108.381 1
      vertex 71.4645 109.464 1
      vertex 73.0866 108.381 0
    endloop
  endfacet
  facet normal -0.19509 -0.980785 0
    outer loop
      vertex 73.0866 108.381 1
      vertex 73.0866 108.381 0
      vertex 75 108 0
    endloop
  endfacet
  facet normal -0.19509 -0.980785 0
    outer loop
      vertex 75 108 1
      vertex 73.0866 108.381 1
      vertex 75 108 0
    endloop
  endfacet
  facet normal 0.19509 -0.980785 0
    outer loop
      vertex 75 108 1
      vertex 75 108 0
      vertex 76.9134 108.381 0
    endloop
  endfacet
  facet normal 0.19509 -0.980785 0
    outer loop
      vertex 76.9134 108.381 1
      vertex 75 108 1
      vertex 76.9134 108.381 0
    endloop
  endfacet
  facet normal 0.55557 -0.83147 0
    outer loop
      vertex 76.9134 108.381 1
      vertex 76.9134 108.381 0
      vertex 78.5355 109.464 0
    endloop
  endfacet
  facet normal 0.55557 -0.83147 0
    outer loop
      vertex 78.5355 109.464 1
      vertex 76.9134 108.381 1
      vertex 78.5355 109.464 0
    endloop
  endfacet
  facet normal 0.83147 -0.55557 0
    outer loop
      vertex 78.5355 109.464 1
      vertex 78.5355 109.464 0
      vertex 79.6194 111.087 0
    endloop
  endfacet
  facet normal 0.83147 -0.55557 0
    outer loop
      vertex 79.6194 111.087 1
      vertex 78.5355 109.464 1
      vertex 79.6194 111.087 0
    endloop
  endfacet
  facet normal 0.980785 -0.19509 0
    outer loop
      vertex 79.6194 111.087 1
      vertex 79.6194 111.087 0
      vertex 80 113 0
    endloop
  endfacet
  facet normal 0.980785 -0.19509 0
    outer loop
      vertex 80 113 1
      vertex 79.6194 111.087 1
      vertex 80 113 0
    endloop
  endfacet
  facet normal 0.980785 0.19509 0
    outer loop
      vertex 80 113 0
      vertex 79.6194 114.913 0
      vertex 79.6194 114.913 1
    endloop
  endfacet
  facet normal 0.980785 0.19509 0
    outer loop
      vertex 80 113 1
      vertex 80 113 0
      vertex 79.6194 114.913 1
    endloop
  endfacet
  facet normal 0.83147 0.55557 0
    outer loop
      vertex 79.6194 114.913 0
      vertex 78.5355 116.536 0
      vertex 78.5355 116.536 1
    endloop
  endfacet
  facet normal 0.83147 0.55557 0
    outer loop
      vertex 79.6194 114.913 1
      vertex 79.6194 114.913 0
      vertex 78.5355 116.536 1
    endloop
  endfacet
  facet normal 0.55557 0.83147 0
    outer loop
      vertex 76.9134 117.619 0
      vertex 76.9134 117.619 1
      vertex 78.5355 116.536 0
    endloop
  endfacet
  facet normal 0.55557 0.83147 0
    outer loop
      vertex 78.5355 116.536 0
      vertex 76.9134 117.619 1
      vertex 78.5355 116.536 1
    endloop
  endfacet
  facet normal 0.19509 0.980785 0
    outer loop
      vertex 75 118 0
      vertex 75 118 1
      vertex 76.9134 117.619 0
    endloop
  endfacet
  facet normal 0.19509 0.980785 0
    outer loop
      vertex 76.9134 117.619 0
      vertex 75 118 1
      vertex 76.9134 117.619 1
    endloop
  endfacet
  facet normal -0.19509 0.980785 0
    outer loop
      vertex 73.0866 117.619 0
      vertex 73.0866 117.619 1
      vertex 75 118 0
    endloop
  endfacet
  facet normal -0.19509 0.980785 0
    outer loop
      vertex 75 118 0
      vertex 73.0866 117.619 1
      vertex 75 118 1
    endloop
  endfacet
  facet normal -0.55557 0.83147 0
    outer loop
      vertex 71.4645 116.536 0
      vertex 71.4645 116.536 1
      vertex 73.0866 117.619 0
    endloop
  endfacet
  facet normal -0.55557 0.83147 0
    outer loop
      vertex 73.0866 117.619 0
      vertex 71.4645 116.536 1
      vertex 73.0866 117.619 1
    endloop
  endfacet
  facet normal -0.83147 0.55557 0
    outer loop
      vertex 70.3806 114.913 0
      vertex 70.3806 114.913 1
      vertex 71.4645 116.536 0
    endloop
  endfacet
  facet normal -0.83147 0.55557 0
    outer loop
      vertex 71.4645 116.536 0
      vertex 70.3806 114.913 1
      vertex 71.4645 116.536 1
    endloop
  endfacet
  facet normal 0.951057 -0.309017 0
    outer loop
      vertex 72.5729 114.763 0
      vertex 72.5729 114.763 1
      vertex 72 113 1
    endloop
  endfacet
  facet normal 0.951057 -0.309017 0
    outer loop
      vertex 72 113 0
      vertex 72.5729 114.763 0
      vertex 72 113 1
    endloop
  endfacet
  facet normal 0.951057 0.309017 0
    outer loop
      vertex 72 113 1
      vertex 72.5729 111.237 1
      vertex 72.5729 111.237 0
    endloop
  endfacet
  facet normal 0.951057 0.309017 0
    outer loop
      vertex 72 113 0
      vertex 72 113 1
      vertex 72.5729 111.237 0
    endloop
  endfacet
  facet normal 0.587785 -0.809017 0
    outer loop
      vertex 74.0729 115.853 0
      vertex 74.0729 115.853 1
      vertex 72.5729 114.763 1
    endloop
  endfacet
  facet normal 0.587785 -0.809017 0
    outer loop
      vertex 72.5729 114.763 0
      vertex 74.0729 115.853 0
      vertex 72.5729 114.763 1
    endloop
  endfacet
  facet normal 0 -1 0
    outer loop
      vertex 75.9271 115.853 0
      vertex 75.9271 115.853 1
      vertex 74.0729 115.853 1
    endloop
  endfacet
  facet normal 0 -1 0
    outer loop
      vertex 74.0729 115.853 0
      vertex 75.9271 115.853 0
      vertex 74.0729 115.853 1
    endloop
  endfacet
  facet normal -0.587785 -0.809017 0
    outer loop
      vertex 77.4271 114.763 0
      vertex 77.4271 114.763 1
      vertex 75.9271 115.853 1
    endloop
  endfacet
  facet normal -0.587785 -0.809017 0
    outer loop
      vertex 75.9271 115.853 0
      vertex 77.4271 114.763 0
      vertex 75.9271 115.853 1
    endloop
  endfacet
  facet normal -0.951057 -0.309017 0
    outer loop
      vertex 78 113 1
      vertex 77.4271 114.763 1
      vertex 78 113 0
    endloop
  endfacet
  facet normal -0.951057 -0.309017 0
    outer loop
      vertex 78 113 0
      vertex 77.4271 114.763 1
      vertex 77.4271 114.763 0
    endloop
  endfacet
  facet normal -0.951057 0.309017 0
    outer loop
      vertex 78 113 1
      vertex 78 113 0
      vertex 77.4271 111.237 1
    endloop
  endfacet
  facet normal -0.951057 0.309017 0
    outer loop
      vertex 77.4271 111.237 1
      vertex 78 113 0
      vertex 77.4271 111.237 0
    endloop
  endfacet
  facet normal -0.587785 0.809017 0
    outer loop
      vertex 77.4271 111.237 1
      vertex 77.4271 111.237 0
      vertex 75.9271 110.147 1
    endloop
  endfacet
  facet normal -0.587785 0.809017 0
    outer loop
      vertex 75.9271 110.147 1
      vertex 77.4271 111.237 0
      vertex 75.9271 110.147 0
    endloop
  endfacet
  facet normal 0 1 0
    outer loop
      vertex 75.9271 110.147 1
      vertex 75.9271 110.147 0
      vertex 74.0729 110.147 1
    endloop
  endfacet
  facet normal 0 1 0
    outer loop
      vertex 74.0729 110.147 1
      vertex 75.9271 110.147 0
      vertex 74.0729 110.147 0
    endloop
  endfacet
  facet normal 0.587785 0.809017 0
    outer loop
      vertex 74.0729 110.147 1
      vertex 74.0729 110.147 0
      vertex 72.5729 111.237 1
    endloop
  endfacet
  facet normal 0.587785 0.809017 0
    outer loop
      vertex 72.5729 111.237 1
      vertex 74.0729 110.147 0
      vertex 72.5729 111.237 0
    endloop
  endfacet
  facet normal 0 0 1
    outer loop
      vertex 70.3806 114.913 1
      vertex 70 113 1
      vertex 70.3806 111.087 1
    endloop
  endfacet
  facet normal 0 0 1
    outer loop
      vertex 73.0866 108.381 1
      vertex 70.3806 114.913 1
      vertex 71.4645 109.464 1
    endloop
  endfacet
  facet normal 0 0 1
    outer loop
      vertex 71.4645 109.464 1
      vertex 70.3806 114.913 1
      vertex 70.3806 111.087 1
    endloop
  endfacet
  facet normal 0 0 1
    outer loop
      vertex 72.5729 111.237 1
      vertex 70.3806 114.913 1
      vertex 73.0866 108.381 1
    endloop
  endfacet
  facet normal 0 0 1
    outer loop
      vertex 77.4271 111.237 1
      vertex 75.9271 110.147 1
      vertex 78.5355 109.464 1
    endloop
  endfacet
  facet normal 0 0 1
    outer loop
      vertex 77.4271 114.763 1
      vertex 78 113 1
      vertex 80 113 1
    endloop
  endfacet
  facet normal 0 0 1
    outer loop
      vertex 74.0729 115.853 1
      vertex 75.9271 115.853 1
      vertex 78.5355 116.536 1
    endloop
  endfacet
  facet normal 0 0 1
    outer loop
      vertex 75.9271 115.853 1
      vertex 77.4271 114.763 1
      vertex 79.6194 114.913 1
    endloop
  endfacet
  facet normal 0 0 1
    outer loop
      vertex 75 118 1
      vertex 70.3806 114.913 1
      vertex 76.9134 117.619 1
    endloop
  endfacet
  facet normal 0 0 1
    outer loop
      vertex 73.0866 117.619 1
      vertex 70.3806 114.913 1
      vertex 75 118 1
    endloop
  endfacet
  facet normal 0 0 1
    outer loop
      vertex 71.4645 116.536 1
      vertex 70.3806 114.913 1
      vertex 73.0866 117.619 1
    endloop
  endfacet
  facet normal 0 0 1
    outer loop
      vertex 75 108 1
      vertex 72.5729 111.237 1
      vertex 73.0866 108.381 1
    endloop
  endfacet
  facet normal 0 0 1
    outer loop
      vertex 78 113 1
      vertex 77.4271 111.237 1
      vertex 79.6194 111.087 1
    endloop
  endfacet
  facet normal 0 0 1
    outer loop
      vertex 76.9134 117.619 1
      vertex 74.0729 115.853 1
      vertex 78.5355 116.536 1
    endloop
  endfacet
  facet normal 0 0 1
    outer loop
      vertex 76.9134 117.619 1
      vertex 70.3806 114.913 1
      vertex 74.0729 115.853 1
    endloop
  endfacet
  facet normal 0 0 1
    outer loop
      vertex 78.5355 116.536 1
      vertex 75.9271 115.853 1
      vertex 79.6194 114.913 1
    endloop
  endfacet
  facet normal 0 0 1
    outer loop
      vertex 79.6194 114.913 1
      vertex 77.4271 114.763 1
      vertex 80 113 1
    endloop
  endfacet
  facet normal 0 0 1
    outer loop
      vertex 80 113 1
      vertex 78 113 1
      vertex 79.6194 111.087 1
    endloop
  endfacet
  facet normal 0 0 1
    outer loop
      vertex 75.9271 110.147 1
      vertex 74.0729 110.147 1
      vertex 76.9134 108.381 1
    endloop
  endfacet
  facet normal 0 0 1
    outer loop
      vertex 79.6194 111.087 1
      vertex 77.4271 111.237 1
      vertex 78.5355 109.464 1
    endloop
  endfacet
  facet normal 0 0 1
    outer loop
      vertex 72.5729 114.763 1
      vertex 74.0729 115.853 1
      vertex 70.3806 114.913 1
    endloop
  endfacet
  facet normal 0 0 1
    outer loop
      vertex 78.5355 109.464 1
      vertex 75.9271 110.147 1
      vertex 76.9134 108.381 1
    endloop
  endfacet
  facet normal 0 0 1
    outer loop
      vertex 76.9134 108.381 1
      vertex 74.0729 110.147 1
      vertex 75 108 1
    endloop
  endfacet
  facet normal 0 0 1
    outer loop
      vertex 72.5729 111.237 1
      vertex 72 113 1
      vertex 70.3806 114.913 1
    endloop
  endfacet
  facet normal 0 0 1
    outer loop
      vertex 74.0729 110.147 1
      vertex 72.5729 111.237 1
      vertex 75 108 1
    endloop
  endfacet
  facet normal 0 0 1
    outer loop
      vertex 72 113 1
      vertex 72.5729 114.763 1
      vertex 70.3806 114.913 1
    endloop
  endfacet
endsolid OpenSCAD_Model
