solid OpenSCAD_Model
  facet normal -1 0 0
    outer loop
      vertex 0 0 0
      vertex 0 0 5
      vertex 0 110 0
    endloop
  endfacet
  facet normal -1 0 0
    outer loop
      vertex 0 110 0
      vertex 0 0 5
      vertex 0 110 5
    endloop
  endfacet
  facet normal 0 -1 0
    outer loop
      vertex 0 0 5
      vertex 0 0 0
      vertex 160 0 0
    endloop
  endfacet
  facet normal 0 -1 0
    outer loop
      vertex 160 0 5
      vertex 0 0 5
      vertex 160 0 0
    endloop
  endfacet
  facet normal 0 0 -1
    outer loop
      vertex 0 0 0
      vertex 0 110 0
      vertex 160 0 0
    endloop
  endfacet
  facet normal 0 0 -1
    outer loop
      vertex 160 0 0
      vertex 0 110 0
      vertex 71.1066 110 0
    endloop
  endfacet
  facet normal 0 0 -1
    outer loop
      vertex 160 0 0
      vertex 71.1066 110 0
      vertex 70.3806 111.087 0
    endloop
  endfacet
  facet normal 0 0 -1
    outer loop
      vertex 160 0 0
      vertex 70.3806 111.087 0
      vertex 70 113 0
    endloop
  endfacet
  facet normal 0 0 -1
    outer loop
      vertex 72.5729 111.237 0
      vertex 70 113 0
      vertex 70.3806 114.913 0
    endloop
  endfacet
  facet normal 0 0 -1
    outer loop
      vertex 72 113 0
      vertex 70.3806 114.913 0
      vertex 71.4645 116.536 0
    endloop
  endfacet
  facet normal 0 0 -1
    outer loop
      vertex 74.0729 115.853 0
      vertex 71.4645 116.536 0
      vertex 73.0866 117.619 0
    endloop
  endfacet
  facet normal 0 0 -1
    outer loop
      vertex 75.9271 115.853 0
      vertex 73.0866 117.619 0
      vertex 75 118 0
    endloop
  endfacet
  facet normal 0 0 -1
    outer loop
      vertex 80 113 0
      vertex 75 118 0
      vertex 76.9134 117.619 0
    endloop
  endfacet
  facet normal 0 0 -1
    outer loop
      vertex 79.6194 114.913 0
      vertex 76.9134 117.619 0
      vertex 78.5355 116.536 0
    endloop
  endfacet
  facet normal 0 0 -1
    outer loop
      vertex 79.6194 111.087 0
      vertex 77.4271 114.763 0
      vertex 80 113 0
    endloop
  endfacet
  facet normal 0 0 -1
    outer loop
      vertex 77.4271 114.763 0
      vertex 75 118 0
      vertex 80 113 0
    endloop
  endfacet
  facet normal 0 0 -1
    outer loop
      vertex 75.9271 115.853 0
      vertex 75 118 0
      vertex 77.4271 114.763 0
    endloop
  endfacet
  facet normal 0 0 -1
    outer loop
      vertex 160 110 0
      vertex 160 0 0
      vertex 78.8934 110 0
    endloop
  endfacet
  facet normal 0 0 -1
    outer loop
      vertex 72.5729 111.237 0
      vertex 70.3806 114.913 0
      vertex 72 113 0
    endloop
  endfacet
  facet normal 0 0 -1
    outer loop
      vertex 78 113 0
      vertex 78.8934 110 0
      vertex 77.4271 111.237 0
    endloop
  endfacet
  facet normal 0 0 -1
    outer loop
      vertex 72.5729 114.763 0
      vertex 72 113 0
      vertex 71.4645 116.536 0
    endloop
  endfacet
  facet normal 0 0 -1
    outer loop
      vertex 160 0 0
      vertex 70 113 0
      vertex 72.5729 111.237 0
    endloop
  endfacet
  facet normal 0 0 -1
    outer loop
      vertex 75.9271 110.147 0
      vertex 160 0 0
      vertex 74.0729 110.147 0
    endloop
  endfacet
  facet normal 0 0 -1
    outer loop
      vertex 160 0 0
      vertex 72.5729 111.237 0
      vertex 74.0729 110.147 0
    endloop
  endfacet
  facet normal 0 0 -1
    outer loop
      vertex 77.4271 111.237 0
      vertex 160 0 0
      vertex 75.9271 110.147 0
    endloop
  endfacet
  facet normal 0 0 -1
    outer loop
      vertex 78.8934 110 0
      vertex 160 0 0
      vertex 77.4271 111.237 0
    endloop
  endfacet
  facet normal 0 0 -1
    outer loop
      vertex 78 113 0
      vertex 79.6194 111.087 0
      vertex 78.8934 110 0
    endloop
  endfacet
  facet normal 0 0 -1
    outer loop
      vertex 77.4271 114.763 0
      vertex 79.6194 111.087 0
      vertex 78 113 0
    endloop
  endfacet
  facet normal 0 0 -1
    outer loop
      vertex 74.0729 115.853 0
      vertex 73.0866 117.619 0
      vertex 75.9271 115.853 0
    endloop
  endfacet
  facet normal 0 0 -1
    outer loop
      vertex 72.5729 114.763 0
      vertex 71.4645 116.536 0
      vertex 74.0729 115.853 0
    endloop
  endfacet
  facet normal 0 0 -1
    outer loop
      vertex 80 113 0
      vertex 76.9134 117.619 0
      vertex 79.6194 114.913 0
    endloop
  endfacet
  facet normal 0 1 0
    outer loop
      vertex 71.1066 110 2
      vertex 71.1066 110 0
      vertex 2.5 110 2
    endloop
  endfacet
  facet normal 0 1 0
    outer loop
      vertex 0 110 0
      vertex 0 110 5
      vertex 2.5 110 2
    endloop
  endfacet
  facet normal 0 1 0
    outer loop
      vertex 0 110 0
      vertex 2.5 110 2
      vertex 71.1066 110 0
    endloop
  endfacet
  facet normal 0 1 0
    outer loop
      vertex 2.5 110 2
      vertex 0 110 5
      vertex 2.5 110 5
    endloop
  endfacet
  facet normal 0 0 1
    outer loop
      vertex 2.5 2.5 5
      vertex 0 0 5
      vertex 160 0 5
    endloop
  endfacet
  facet normal 0 0 1
    outer loop
      vertex 2.5 2.5 5
      vertex 2.5 110 5
      vertex 0 110 5
    endloop
  endfacet
  facet normal 0 0 1
    outer loop
      vertex 160 110 5
      vertex 157.5 110 5
      vertex 160 0 5
    endloop
  endfacet
  facet normal 0 0 1
    outer loop
      vertex 157.5 110 5
      vertex 157.5 2.5 5
      vertex 160 0 5
    endloop
  endfacet
  facet normal 0 0 1
    outer loop
      vertex 0 110 5
      vertex 0 0 5
      vertex 2.5 2.5 5
    endloop
  endfacet
  facet normal 0 0 1
    outer loop
      vertex 157.5 2.5 5
      vertex 2.5 2.5 5
      vertex 160 0 5
    endloop
  endfacet
  facet normal 1 0 0
    outer loop
      vertex 160 0 5
      vertex 160 0 0
      vertex 160 110 0
    endloop
  endfacet
  facet normal 1 0 0
    outer loop
      vertex 160 110 5
      vertex 160 0 5
      vertex 160 110 0
    endloop
  endfacet
  facet normal 0 1 0
    outer loop
      vertex 78.8934 110 0
      vertex 78.8934 110 2
      vertex 160 110 0
    endloop
  endfacet
  facet normal 0 1 0
    outer loop
      vertex 160 110 0
      vertex 78.8934 110 2
      vertex 157.5 110 2
    endloop
  endfacet
  facet normal 0 1 0
    outer loop
      vertex 160 110 0
      vertex 157.5 110 2
      vertex 157.5 110 5
    endloop
  endfacet
  facet normal 0 1 0
    outer loop
      vertex 160 110 0
      vertex 157.5 110 5
      vertex 160 110 5
    endloop
  endfacet
  facet normal 0.83147 -0.55557 0
    outer loop
      vertex 78.8934 110 2
      vertex 78.8934 110 0
      vertex 79.6194 111.087 0
    endloop
  endfacet
  facet normal 0.83147 -0.55557 0
    outer loop
      vertex 79.6194 111.087 2
      vertex 78.8934 110 2
      vertex 79.6194 111.087 0
    endloop
  endfacet
  facet normal 0.980785 -0.19509 0
    outer loop
      vertex 79.6194 111.087 2
      vertex 79.6194 111.087 0
      vertex 80 113 0
    endloop
  endfacet
  facet normal 0.980785 -0.19509 0
    outer loop
      vertex 80 113 2
      vertex 79.6194 111.087 2
      vertex 80 113 0
    endloop
  endfacet
  facet normal 0.980785 0.19509 0
    outer loop
      vertex 80 113 0
      vertex 79.6194 114.913 0
      vertex 79.6194 114.913 2
    endloop
  endfacet
  facet normal 0.980785 0.19509 0
    outer loop
      vertex 80 113 2
      vertex 80 113 0
      vertex 79.6194 114.913 2
    endloop
  endfacet
  facet normal 0.83147 0.55557 0
    outer loop
      vertex 79.6194 114.913 0
      vertex 78.5355 116.536 0
      vertex 78.5355 116.536 2
    endloop
  endfacet
  facet normal 0.83147 0.55557 0
    outer loop
      vertex 79.6194 114.913 2
      vertex 79.6194 114.913 0
      vertex 78.5355 116.536 2
    endloop
  endfacet
  facet normal 0.55557 0.83147 0
    outer loop
      vertex 76.9134 117.619 0
      vertex 76.9134 117.619 2
      vertex 78.5355 116.536 0
    endloop
  endfacet
  facet normal 0.55557 0.83147 0
    outer loop
      vertex 78.5355 116.536 0
      vertex 76.9134 117.619 2
      vertex 78.5355 116.536 2
    endloop
  endfacet
  facet normal 0.19509 0.980785 0
    outer loop
      vertex 75 118 0
      vertex 75 118 2
      vertex 76.9134 117.619 0
    endloop
  endfacet
  facet normal 0.19509 0.980785 0
    outer loop
      vertex 76.9134 117.619 0
      vertex 75 118 2
      vertex 76.9134 117.619 2
    endloop
  endfacet
  facet normal -0.19509 0.980785 0
    outer loop
      vertex 73.0866 117.619 0
      vertex 73.0866 117.619 2
      vertex 75 118 0
    endloop
  endfacet
  facet normal -0.19509 0.980785 0
    outer loop
      vertex 75 118 0
      vertex 73.0866 117.619 2
      vertex 75 118 2
    endloop
  endfacet
  facet normal -0.55557 0.83147 0
    outer loop
      vertex 71.4645 116.536 0
      vertex 71.4645 116.536 2
      vertex 73.0866 117.619 0
    endloop
  endfacet
  facet normal -0.55557 0.83147 0
    outer loop
      vertex 73.0866 117.619 0
      vertex 71.4645 116.536 2
      vertex 73.0866 117.619 2
    endloop
  endfacet
  facet normal -0.83147 0.55557 0
    outer loop
      vertex 70.3806 114.913 0
      vertex 70.3806 114.913 2
      vertex 71.4645 116.536 0
    endloop
  endfacet
  facet normal -0.83147 0.55557 0
    outer loop
      vertex 71.4645 116.536 0
      vertex 70.3806 114.913 2
      vertex 71.4645 116.536 2
    endloop
  endfacet
  facet normal -0.980785 0.19509 0
    outer loop
      vertex 70 113 0
      vertex 70 113 2
      vertex 70.3806 114.913 0
    endloop
  endfacet
  facet normal -0.980785 0.19509 0
    outer loop
      vertex 70.3806 114.913 0
      vertex 70 113 2
      vertex 70.3806 114.913 2
    endloop
  endfacet
  facet normal -0.980785 -0.19509 0
    outer loop
      vertex 70 113 0
      vertex 70.3806 111.087 0
      vertex 70 113 2
    endloop
  endfacet
  facet normal -0.980785 -0.19509 0
    outer loop
      vertex 70 113 2
      vertex 70.3806 111.087 0
      vertex 70.3806 111.087 2
    endloop
  endfacet
  facet normal -0.83147 -0.55557 0
    outer loop
      vertex 70.3806 111.087 0
      vertex 71.1066 110 0
      vertex 70.3806 111.087 2
    endloop
  endfacet
  facet normal -0.83147 -0.55557 0
    outer loop
      vertex 70.3806 111.087 2
      vertex 71.1066 110 0
      vertex 71.1066 110 2
    endloop
  endfacet
  facet normal 0.951057 -0.309017 0
    outer loop
      vertex 72.5729 114.763 0
      vertex 72.5729 114.763 2
      vertex 72 113 2
    endloop
  endfacet
  facet normal 0.951057 -0.309017 0
    outer loop
      vertex 72 113 0
      vertex 72.5729 114.763 0
      vertex 72 113 2
    endloop
  endfacet
  facet normal 0.951057 0.309017 0
    outer loop
      vertex 72 113 2
      vertex 72.5729 111.237 2
      vertex 72.5729 111.237 0
    endloop
  endfacet
  facet normal 0.951057 0.309017 0
    outer loop
      vertex 72 113 0
      vertex 72 113 2
      vertex 72.5729 111.237 0
    endloop
  endfacet
  facet normal 0.587785 -0.809017 0
    outer loop
      vertex 74.0729 115.853 0
      vertex 74.0729 115.853 2
      vertex 72.5729 114.763 2
    endloop
  endfacet
  facet normal 0.587785 -0.809017 0
    outer loop
      vertex 72.5729 114.763 0
      vertex 74.0729 115.853 0
      vertex 72.5729 114.763 2
    endloop
  endfacet
  facet normal 0 -1 0
    outer loop
      vertex 75.9271 115.853 0
      vertex 75.9271 115.853 2
      vertex 74.0729 115.853 2
    endloop
  endfacet
  facet normal 0 -1 0
    outer loop
      vertex 74.0729 115.853 0
      vertex 75.9271 115.853 0
      vertex 74.0729 115.853 2
    endloop
  endfacet
  facet normal -0.587785 -0.809017 0
    outer loop
      vertex 77.4271 114.763 0
      vertex 77.4271 114.763 2
      vertex 75.9271 115.853 2
    endloop
  endfacet
  facet normal -0.587785 -0.809017 0
    outer loop
      vertex 75.9271 115.853 0
      vertex 77.4271 114.763 0
      vertex 75.9271 115.853 2
    endloop
  endfacet
  facet normal -0.951057 -0.309017 0
    outer loop
      vertex 78 113 2
      vertex 77.4271 114.763 2
      vertex 78 113 0
    endloop
  endfacet
  facet normal -0.951057 -0.309017 0
    outer loop
      vertex 78 113 0
      vertex 77.4271 114.763 2
      vertex 77.4271 114.763 0
    endloop
  endfacet
  facet normal -0.951057 0.309017 0
    outer loop
      vertex 78 113 2
      vertex 78 113 0
      vertex 77.4271 111.237 2
    endloop
  endfacet
  facet normal -0.951057 0.309017 0
    outer loop
      vertex 77.4271 111.237 2
      vertex 78 113 0
      vertex 77.4271 111.237 0
    endloop
  endfacet
  facet normal -0.587785 0.809017 0
    outer loop
      vertex 77.4271 111.237 2
      vertex 77.4271 111.237 0
      vertex 75.9271 110.147 2
    endloop
  endfacet
  facet normal -0.587785 0.809017 0
    outer loop
      vertex 75.9271 110.147 2
      vertex 77.4271 111.237 0
      vertex 75.9271 110.147 0
    endloop
  endfacet
  facet normal 0 1 0
    outer loop
      vertex 75.9271 110.147 2
      vertex 75.9271 110.147 0
      vertex 74.0729 110.147 2
    endloop
  endfacet
  facet normal 0 1 0
    outer loop
      vertex 74.0729 110.147 2
      vertex 75.9271 110.147 0
      vertex 74.0729 110.147 0
    endloop
  endfacet
  facet normal 0.587785 0.809017 0
    outer loop
      vertex 74.0729 110.147 2
      vertex 74.0729 110.147 0
      vertex 72.5729 111.237 2
    endloop
  endfacet
  facet normal 0.587785 0.809017 0
    outer loop
      vertex 72.5729 111.237 2
      vertex 74.0729 110.147 0
      vertex 72.5729 111.237 0
    endloop
  endfacet
  facet normal 0 0 1
    outer loop
      vertex 157.5 2.5 2
      vertex 157.5 110 2
      vertex 78.8934 110 2
    endloop
  endfacet
  facet normal 0 0 1
    outer loop
      vertex 76.9134 108.381 2
      vertex 157.5 2.5 2
      vertex 78.5355 109.464 2
    endloop
  endfacet
  facet normal 0 0 1
    outer loop
      vertex 78.5355 109.464 2
      vertex 157.5 2.5 2
      vertex 78.8934 110 2
    endloop
  endfacet
  facet normal 0 0 1
    outer loop
      vertex 75 108 2
      vertex 157.5 2.5 2
      vertex 76.9134 108.381 2
    endloop
  endfacet
  facet normal 0 0 1
    outer loop
      vertex 73.0866 108.381 2
      vertex 157.5 2.5 2
      vertex 75 108 2
    endloop
  endfacet
  facet normal 0 0 1
    outer loop
      vertex 71.4645 109.464 2
      vertex 157.5 2.5 2
      vertex 73.0866 108.381 2
    endloop
  endfacet
  facet normal 0 0 1
    outer loop
      vertex 2.5 110 2
      vertex 157.5 2.5 2
      vertex 71.4645 109.464 2
    endloop
  endfacet
  facet normal 0 0 1
    outer loop
      vertex 2.5 110 2
      vertex 71.4645 109.464 2
      vertex 71.1066 110 2
    endloop
  endfacet
  facet normal 0 0 1
    outer loop
      vertex 2.5 2.5 2
      vertex 157.5 2.5 2
      vertex 2.5 110 2
    endloop
  endfacet
  facet normal 0 0 1
    outer loop
      vertex 71.1066 110 2
      vertex 71.4645 109.464 2
      vertex 73.0866 108.381 2
    endloop
  endfacet
  facet normal 0 0 1
    outer loop
      vertex 70.3806 111.087 2
      vertex 71.1066 110 2
      vertex 73.0866 108.381 2
    endloop
  endfacet
  facet normal 0 0 1
    outer loop
      vertex 75 108 2
      vertex 70.3806 111.087 2
      vertex 73.0866 108.381 2
    endloop
  endfacet
  facet normal 0 0 1
    outer loop
      vertex 76.9134 108.381 2
      vertex 70.3806 111.087 2
      vertex 75 108 2
    endloop
  endfacet
  facet normal 0 0 1
    outer loop
      vertex 74.0729 110.147 2
      vertex 70.3806 111.087 2
      vertex 76.9134 108.381 2
    endloop
  endfacet
  facet normal 0 0 1
    outer loop
      vertex 75.9271 110.147 2
      vertex 74.0729 110.147 2
      vertex 78.5355 109.464 2
    endloop
  endfacet
  facet normal 0 0 1
    outer loop
      vertex 74.0729 110.147 2
      vertex 72.5729 111.237 2
      vertex 70.3806 111.087 2
    endloop
  endfacet
  facet normal 0 0 1
    outer loop
      vertex 77.4271 111.237 2
      vertex 75.9271 110.147 2
      vertex 78.8934 110 2
    endloop
  endfacet
  facet normal 0 0 1
    outer loop
      vertex 74.0729 115.853 2
      vertex 75.9271 115.853 2
      vertex 76.9134 117.619 2
    endloop
  endfacet
  facet normal 0 0 1
    outer loop
      vertex 71.4645 116.536 2
      vertex 70.3806 111.087 2
      vertex 73.0866 117.619 2
    endloop
  endfacet
  facet normal 0 0 1
    outer loop
      vertex 70.3806 114.913 2
      vertex 70.3806 111.087 2
      vertex 71.4645 116.536 2
    endloop
  endfacet
  facet normal 0 0 1
    outer loop
      vertex 70 113 2
      vertex 70.3806 111.087 2
      vertex 70.3806 114.913 2
    endloop
  endfacet
  facet normal 0 0 1
    outer loop
      vertex 75.9271 115.853 2
      vertex 77.4271 114.763 2
      vertex 78.5355 116.536 2
    endloop
  endfacet
  facet normal 0 0 1
    outer loop
      vertex 72.5729 114.763 2
      vertex 74.0729 115.853 2
      vertex 75 118 2
    endloop
  endfacet
  facet normal 0 0 1
    outer loop
      vertex 73.0866 117.619 2
      vertex 72.5729 114.763 2
      vertex 75 118 2
    endloop
  endfacet
  facet normal 0 0 1
    outer loop
      vertex 73.0866 117.619 2
      vertex 70.3806 111.087 2
      vertex 72.5729 114.763 2
    endloop
  endfacet
  facet normal 0 0 1
    outer loop
      vertex 75 118 2
      vertex 74.0729 115.853 2
      vertex 76.9134 117.619 2
    endloop
  endfacet
  facet normal 0 0 1
    outer loop
      vertex 76.9134 117.619 2
      vertex 75.9271 115.853 2
      vertex 78.5355 116.536 2
    endloop
  endfacet
  facet normal 0 0 1
    outer loop
      vertex 72 113 2
      vertex 72.5729 114.763 2
      vertex 70.3806 111.087 2
    endloop
  endfacet
  facet normal 0 0 1
    outer loop
      vertex 78.5355 116.536 2
      vertex 77.4271 114.763 2
      vertex 79.6194 114.913 2
    endloop
  endfacet
  facet normal 0 0 1
    outer loop
      vertex 79.6194 114.913 2
      vertex 78 113 2
      vertex 80 113 2
    endloop
  endfacet
  facet normal 0 0 1
    outer loop
      vertex 80 113 2
      vertex 77.4271 111.237 2
      vertex 79.6194 111.087 2
    endloop
  endfacet
  facet normal 0 0 1
    outer loop
      vertex 78.8934 110 2
      vertex 75.9271 110.147 2
      vertex 78.5355 109.464 2
    endloop
  endfacet
  facet normal 0 0 1
    outer loop
      vertex 78.5355 109.464 2
      vertex 74.0729 110.147 2
      vertex 76.9134 108.381 2
    endloop
  endfacet
  facet normal 0 0 1
    outer loop
      vertex 77.4271 114.763 2
      vertex 78 113 2
      vertex 79.6194 114.913 2
    endloop
  endfacet
  facet normal 0 0 1
    outer loop
      vertex 78 113 2
      vertex 77.4271 111.237 2
      vertex 80 113 2
    endloop
  endfacet
  facet normal 0 0 1
    outer loop
      vertex 77.4271 111.237 2
      vertex 78.8934 110 2
      vertex 79.6194 111.087 2
    endloop
  endfacet
  facet normal 0 0 1
    outer loop
      vertex 72.5729 111.237 2
      vertex 72 113 2
      vertex 70.3806 111.087 2
    endloop
  endfacet
  facet normal 1 0 0
    outer loop
      vertex 2.5 110 2
      vertex 2.5 110 5
      vertex 2.5 2.5 5
    endloop
  endfacet
  facet normal 1 0 0
    outer loop
      vertex 2.5 2.5 2
      vertex 2.5 110 2
      vertex 2.5 2.5 5
    endloop
  endfacet
  facet normal 0 1 0
    outer loop
      vertex 157.5 2.5 5
      vertex 157.5 2.5 2
      vertex 2.5 2.5 5
    endloop
  endfacet
  facet normal 0 1 0
    outer loop
      vertex 2.5 2.5 5
      vertex 157.5 2.5 2
      vertex 2.5 2.5 2
    endloop
  endfacet
  facet normal -1 0 0
    outer loop
      vertex 157.5 110 5
      vertex 157.5 110 2
      vertex 157.5 2.5 5
    endloop
  endfacet
  facet normal -1 0 0
    outer loop
      vertex 157.5 2.5 5
      vertex 157.5 110 2
      vertex 157.5 2.5 2
    endloop
  endfacet
endsolid OpenSCAD_Model
