solid OpenSCAD_Model
  facet normal -1 0 0
    outer loop
      vertex 0 0 0
      vertex 0 0 3
      vertex 0 101 0
    endloop
  endfacet
  facet normal -1 0 0
    outer loop
      vertex 0 101 0
      vertex 0 0 3
      vertex 0 101 3
    endloop
  endfacet
  facet normal 0 -1 0
    outer loop
      vertex 0 0 3
      vertex 0 0 0
      vertex 152 0 0
    endloop
  endfacet
  facet normal 0 -1 0
    outer loop
      vertex 152 0 3
      vertex 0 0 3
      vertex 152 0 0
    endloop
  endfacet
  facet normal 0 0 -1
    outer loop
      vertex 0 0 0
      vertex 0 101 0
      vertex 152 0 0
    endloop
  endfacet
  facet normal 0 0 -1
    outer loop
      vertex 152 0 0
      vertex 0 101 0
      vertex 69.298 101 0
    endloop
  endfacet
  facet normal 0 0 -1
    outer loop
      vertex 69.298 101 0
      vertex 69.1112 101.216 0
      vertex 68.2835 103.028 0
    endloop
  endfacet
  facet normal 0 0 -1
    outer loop
      vertex 69.298 101 0
      vertex 68.2835 103.028 0
      vertex 152 0 0
    endloop
  endfacet
  facet normal 0 0 -1
    outer loop
      vertex 152 0 0
      vertex 68.2835 103.028 0
      vertex 68 105 0
    endloop
  endfacet
  facet normal 0 0 -1
    outer loop
      vertex 152 0 0
      vertex 68 105 0
      vertex 68.2835 106.972 0
    endloop
  endfacet
  facet normal 0 0 -1
    outer loop
      vertex 72.5729 103.237 0
      vertex 68.2835 106.972 0
      vertex 69.1112 108.784 0
    endloop
  endfacet
  facet normal 0 0 -1
    outer loop
      vertex 72 105 0
      vertex 69.1112 108.784 0
      vertex 70.416 110.29 0
    endloop
  endfacet
  facet normal 0 0 -1
    outer loop
      vertex 74.0729 107.853 0
      vertex 70.416 110.29 0
      vertex 72.0921 111.367 0
    endloop
  endfacet
  facet normal 0 0 -1
    outer loop
      vertex 75.9271 107.853 0
      vertex 72.0921 111.367 0
      vertex 74.0038 111.929 0
    endloop
  endfacet
  facet normal 0 0 -1
    outer loop
      vertex 81.7165 103.028 0
      vertex 74.0038 111.929 0
      vertex 75.9962 111.929 0
    endloop
  endfacet
  facet normal 0 0 -1
    outer loop
      vertex 82 105 0
      vertex 75.9962 111.929 0
      vertex 77.9079 111.367 0
    endloop
  endfacet
  facet normal 0 0 -1
    outer loop
      vertex 81.7165 106.972 0
      vertex 77.9079 111.367 0
      vertex 79.584 110.29 0
    endloop
  endfacet
  facet normal 0 0 -1
    outer loop
      vertex 82 105 0
      vertex 77.9079 111.367 0
      vertex 81.7165 106.972 0
    endloop
  endfacet
  facet normal 0 0 -1
    outer loop
      vertex 80.8888 101.216 0
      vertex 77.4271 106.763 0
      vertex 81.7165 103.028 0
    endloop
  endfacet
  facet normal 0 0 -1
    outer loop
      vertex 81.7165 103.028 0
      vertex 75.9962 111.929 0
      vertex 82 105 0
    endloop
  endfacet
  facet normal 0 0 -1
    outer loop
      vertex 77.4271 106.763 0
      vertex 74.0038 111.929 0
      vertex 81.7165 103.028 0
    endloop
  endfacet
  facet normal 0 0 -1
    outer loop
      vertex 75.9271 107.853 0
      vertex 74.0038 111.929 0
      vertex 77.4271 106.763 0
    endloop
  endfacet
  facet normal 0 0 -1
    outer loop
      vertex 72.5729 103.237 0
      vertex 69.1112 108.784 0
      vertex 72 105 0
    endloop
  endfacet
  facet normal 0 0 -1
    outer loop
      vertex 78 105 0
      vertex 80.702 101 0
      vertex 77.4271 103.237 0
    endloop
  endfacet
  facet normal 0 0 -1
    outer loop
      vertex 72.5729 106.763 0
      vertex 72 105 0
      vertex 70.416 110.29 0
    endloop
  endfacet
  facet normal 0 0 -1
    outer loop
      vertex 152 0 0
      vertex 68.2835 106.972 0
      vertex 72.5729 103.237 0
    endloop
  endfacet
  facet normal 0 0 -1
    outer loop
      vertex 75.9271 102.147 0
      vertex 152 0 0
      vertex 74.0729 102.147 0
    endloop
  endfacet
  facet normal 0 0 -1
    outer loop
      vertex 152 0 0
      vertex 72.5729 103.237 0
      vertex 74.0729 102.147 0
    endloop
  endfacet
  facet normal 0 0 -1
    outer loop
      vertex 77.4271 103.237 0
      vertex 152 0 0
      vertex 75.9271 102.147 0
    endloop
  endfacet
  facet normal 0 0 -1
    outer loop
      vertex 80.702 101 0
      vertex 152 0 0
      vertex 77.4271 103.237 0
    endloop
  endfacet
  facet normal 0 0 -1
    outer loop
      vertex 78 105 0
      vertex 80.8888 101.216 0
      vertex 80.702 101 0
    endloop
  endfacet
  facet normal 0 0 -1
    outer loop
      vertex 77.4271 106.763 0
      vertex 80.8888 101.216 0
      vertex 78 105 0
    endloop
  endfacet
  facet normal 0 0 -1
    outer loop
      vertex 152 101 0
      vertex 152 0 0
      vertex 80.702 101 0
    endloop
  endfacet
  facet normal 0 0 -1
    outer loop
      vertex 74.0729 107.853 0
      vertex 72.0921 111.367 0
      vertex 75.9271 107.853 0
    endloop
  endfacet
  facet normal 0 0 -1
    outer loop
      vertex 72.5729 106.763 0
      vertex 70.416 110.29 0
      vertex 74.0729 107.853 0
    endloop
  endfacet
  facet normal 0 0 -1
    outer loop
      vertex 81.7165 106.972 0
      vertex 79.584 110.29 0
      vertex 80.8888 108.784 0
    endloop
  endfacet
  facet normal 0 1 0
    outer loop
      vertex 69.298 101 1
      vertex 69.298 101 0
      vertex 1 101 1
    endloop
  endfacet
  facet normal 0 1 0
    outer loop
      vertex 1 101 2
      vertex 0 101 3
      vertex 2 101 2
    endloop
  endfacet
  facet normal 0 1 0
    outer loop
      vertex 0 101 0
      vertex 0 101 3
      vertex 1 101 2
    endloop
  endfacet
  facet normal 0 1 0
    outer loop
      vertex 0 101 0
      vertex 1 101 2
      vertex 1 101 1
    endloop
  endfacet
  facet normal 0 1 0
    outer loop
      vertex 0 101 0
      vertex 1 101 1
      vertex 69.298 101 0
    endloop
  endfacet
  facet normal 0 1 0
    outer loop
      vertex 2 101 2
      vertex 0 101 3
      vertex 2 101 3
    endloop
  endfacet
  facet normal 0 0 1
    outer loop
      vertex 2 2 3
      vertex 0 0 3
      vertex 152 0 3
    endloop
  endfacet
  facet normal 0 0 1
    outer loop
      vertex 2 2 3
      vertex 2 101 3
      vertex 0 101 3
    endloop
  endfacet
  facet normal 0 0 1
    outer loop
      vertex 152 101 3
      vertex 150 101 3
      vertex 152 0 3
    endloop
  endfacet
  facet normal 0 0 1
    outer loop
      vertex 150 101 3
      vertex 150 2 3
      vertex 152 0 3
    endloop
  endfacet
  facet normal 0 0 1
    outer loop
      vertex 0 101 3
      vertex 0 0 3
      vertex 2 2 3
    endloop
  endfacet
  facet normal 0 0 1
    outer loop
      vertex 150 2 3
      vertex 2 2 3
      vertex 152 0 3
    endloop
  endfacet
  facet normal 1 0 0
    outer loop
      vertex 152 0 3
      vertex 152 0 0
      vertex 152 101 0
    endloop
  endfacet
  facet normal 1 0 0
    outer loop
      vertex 152 101 3
      vertex 152 0 3
      vertex 152 101 0
    endloop
  endfacet
  facet normal 0 1 0
    outer loop
      vertex 80.702 101 0
      vertex 80.702 101 1
      vertex 152 101 0
    endloop
  endfacet
  facet normal 0 1 0
    outer loop
      vertex 152 101 0
      vertex 80.702 101 1
      vertex 151 101 1
    endloop
  endfacet
  facet normal 0 1 0
    outer loop
      vertex 152 101 0
      vertex 151 101 1
      vertex 151 101 2
    endloop
  endfacet
  facet normal 0 1 0
    outer loop
      vertex 151 101 2
      vertex 150 101 2
      vertex 150 101 3
    endloop
  endfacet
  facet normal 0 1 0
    outer loop
      vertex 151 101 2
      vertex 150 101 3
      vertex 152 101 3
    endloop
  endfacet
  facet normal 0 1 0
    outer loop
      vertex 151 101 2
      vertex 152 101 3
      vertex 152 101 0
    endloop
  endfacet
  facet normal 0.755749 -0.654861 0
    outer loop
      vertex 80.702 101 1
      vertex 80.702 101 0
      vertex 80.8888 101.216 0
    endloop
  endfacet
  facet normal 0.755749 -0.654861 0
    outer loop
      vertex 80.8888 101.216 1
      vertex 80.702 101 1
      vertex 80.8888 101.216 0
    endloop
  endfacet
  facet normal 0.909632 -0.415415 0
    outer loop
      vertex 80.8888 101.216 1
      vertex 80.8888 101.216 0
      vertex 81.7165 103.028 0
    endloop
  endfacet
  facet normal 0.909632 -0.415415 0
    outer loop
      vertex 81.7165 103.028 1
      vertex 80.8888 101.216 1
      vertex 81.7165 103.028 0
    endloop
  endfacet
  facet normal 0.989821 -0.142315 0
    outer loop
      vertex 81.7165 103.028 1
      vertex 81.7165 103.028 0
      vertex 82 105 0
    endloop
  endfacet
  facet normal 0.989821 -0.142315 0
    outer loop
      vertex 82 105 1
      vertex 81.7165 103.028 1
      vertex 82 105 0
    endloop
  endfacet
  facet normal 0.989821 0.142315 0
    outer loop
      vertex 82 105 0
      vertex 81.7165 106.972 0
      vertex 81.7165 106.972 1
    endloop
  endfacet
  facet normal 0.989821 0.142315 0
    outer loop
      vertex 82 105 1
      vertex 82 105 0
      vertex 81.7165 106.972 1
    endloop
  endfacet
  facet normal 0.909632 0.415415 0
    outer loop
      vertex 81.7165 106.972 0
      vertex 80.8888 108.784 0
      vertex 80.8888 108.784 1
    endloop
  endfacet
  facet normal 0.909632 0.415415 0
    outer loop
      vertex 81.7165 106.972 1
      vertex 81.7165 106.972 0
      vertex 80.8888 108.784 1
    endloop
  endfacet
  facet normal 0.755749 0.654861 0
    outer loop
      vertex 80.8888 108.784 0
      vertex 79.584 110.29 0
      vertex 79.584 110.29 1
    endloop
  endfacet
  facet normal 0.755749 0.654861 0
    outer loop
      vertex 80.8888 108.784 1
      vertex 80.8888 108.784 0
      vertex 79.584 110.29 1
    endloop
  endfacet
  facet normal 0.540641 0.841254 0
    outer loop
      vertex 77.9079 111.367 0
      vertex 77.9079 111.367 1
      vertex 79.584 110.29 0
    endloop
  endfacet
  facet normal 0.540641 0.841254 0
    outer loop
      vertex 79.584 110.29 0
      vertex 77.9079 111.367 1
      vertex 79.584 110.29 1
    endloop
  endfacet
  facet normal 0.281733 0.959493 0
    outer loop
      vertex 75.9962 111.929 0
      vertex 75.9962 111.929 1
      vertex 77.9079 111.367 0
    endloop
  endfacet
  facet normal 0.281733 0.959493 0
    outer loop
      vertex 77.9079 111.367 0
      vertex 75.9962 111.929 1
      vertex 77.9079 111.367 1
    endloop
  endfacet
  facet normal 0 1 0
    outer loop
      vertex 74.0038 111.929 0
      vertex 74.0038 111.929 1
      vertex 75.9962 111.929 0
    endloop
  endfacet
  facet normal 0 1 0
    outer loop
      vertex 75.9962 111.929 0
      vertex 74.0038 111.929 1
      vertex 75.9962 111.929 1
    endloop
  endfacet
  facet normal -0.281733 0.959493 0
    outer loop
      vertex 72.0921 111.367 0
      vertex 72.0921 111.367 1
      vertex 74.0038 111.929 0
    endloop
  endfacet
  facet normal -0.281733 0.959493 0
    outer loop
      vertex 74.0038 111.929 0
      vertex 72.0921 111.367 1
      vertex 74.0038 111.929 1
    endloop
  endfacet
  facet normal -0.540641 0.841254 0
    outer loop
      vertex 70.416 110.29 0
      vertex 70.416 110.29 1
      vertex 72.0921 111.367 0
    endloop
  endfacet
  facet normal -0.540641 0.841254 0
    outer loop
      vertex 72.0921 111.367 0
      vertex 70.416 110.29 1
      vertex 72.0921 111.367 1
    endloop
  endfacet
  facet normal -0.755749 0.654861 0
    outer loop
      vertex 69.1112 108.784 0
      vertex 69.1112 108.784 1
      vertex 70.416 110.29 0
    endloop
  endfacet
  facet normal -0.755749 0.654861 0
    outer loop
      vertex 70.416 110.29 0
      vertex 69.1112 108.784 1
      vertex 70.416 110.29 1
    endloop
  endfacet
  facet normal -0.909632 0.415415 0
    outer loop
      vertex 68.2835 106.972 0
      vertex 68.2835 106.972 1
      vertex 69.1112 108.784 0
    endloop
  endfacet
  facet normal -0.909632 0.415415 0
    outer loop
      vertex 69.1112 108.784 0
      vertex 68.2835 106.972 1
      vertex 69.1112 108.784 1
    endloop
  endfacet
  facet normal -0.989821 0.142315 0
    outer loop
      vertex 68 105 0
      vertex 68 105 1
      vertex 68.2835 106.972 0
    endloop
  endfacet
  facet normal -0.989821 0.142315 0
    outer loop
      vertex 68.2835 106.972 0
      vertex 68 105 1
      vertex 68.2835 106.972 1
    endloop
  endfacet
  facet normal -0.989821 -0.142315 0
    outer loop
      vertex 68 105 0
      vertex 68.2835 103.028 0
      vertex 68 105 1
    endloop
  endfacet
  facet normal -0.989821 -0.142315 0
    outer loop
      vertex 68 105 1
      vertex 68.2835 103.028 0
      vertex 68.2835 103.028 1
    endloop
  endfacet
  facet normal -0.909632 -0.415415 0
    outer loop
      vertex 68.2835 103.028 0
      vertex 69.1112 101.216 0
      vertex 68.2835 103.028 1
    endloop
  endfacet
  facet normal -0.909632 -0.415415 0
    outer loop
      vertex 68.2835 103.028 1
      vertex 69.1112 101.216 0
      vertex 69.1112 101.216 1
    endloop
  endfacet
  facet normal -0.755749 -0.654861 0
    outer loop
      vertex 69.1112 101.216 0
      vertex 69.298 101 0
      vertex 69.1112 101.216 1
    endloop
  endfacet
  facet normal -0.755749 -0.654861 0
    outer loop
      vertex 69.1112 101.216 1
      vertex 69.298 101 0
      vertex 69.298 101 1
    endloop
  endfacet
  facet normal 0.951057 -0.309017 0
    outer loop
      vertex 72.5729 106.763 0
      vertex 72.5729 106.763 1
      vertex 72 105 1
    endloop
  endfacet
  facet normal 0.951057 -0.309017 0
    outer loop
      vertex 72 105 0
      vertex 72.5729 106.763 0
      vertex 72 105 1
    endloop
  endfacet
  facet normal 0.951057 0.309017 0
    outer loop
      vertex 72 105 1
      vertex 72.5729 103.237 1
      vertex 72.5729 103.237 0
    endloop
  endfacet
  facet normal 0.951057 0.309017 0
    outer loop
      vertex 72 105 0
      vertex 72 105 1
      vertex 72.5729 103.237 0
    endloop
  endfacet
  facet normal 0.587785 -0.809017 0
    outer loop
      vertex 74.0729 107.853 0
      vertex 74.0729 107.853 1
      vertex 72.5729 106.763 1
    endloop
  endfacet
  facet normal 0.587785 -0.809017 0
    outer loop
      vertex 72.5729 106.763 0
      vertex 74.0729 107.853 0
      vertex 72.5729 106.763 1
    endloop
  endfacet
  facet normal 0 -1 0
    outer loop
      vertex 75.9271 107.853 0
      vertex 75.9271 107.853 1
      vertex 74.0729 107.853 1
    endloop
  endfacet
  facet normal 0 -1 0
    outer loop
      vertex 74.0729 107.853 0
      vertex 75.9271 107.853 0
      vertex 74.0729 107.853 1
    endloop
  endfacet
  facet normal -0.587785 -0.809017 0
    outer loop
      vertex 77.4271 106.763 0
      vertex 77.4271 106.763 1
      vertex 75.9271 107.853 1
    endloop
  endfacet
  facet normal -0.587785 -0.809017 0
    outer loop
      vertex 75.9271 107.853 0
      vertex 77.4271 106.763 0
      vertex 75.9271 107.853 1
    endloop
  endfacet
  facet normal -0.951057 -0.309017 0
    outer loop
      vertex 78 105 1
      vertex 77.4271 106.763 1
      vertex 78 105 0
    endloop
  endfacet
  facet normal -0.951057 -0.309017 0
    outer loop
      vertex 78 105 0
      vertex 77.4271 106.763 1
      vertex 77.4271 106.763 0
    endloop
  endfacet
  facet normal -0.951057 0.309017 0
    outer loop
      vertex 78 105 1
      vertex 78 105 0
      vertex 77.4271 103.237 1
    endloop
  endfacet
  facet normal -0.951057 0.309017 0
    outer loop
      vertex 77.4271 103.237 1
      vertex 78 105 0
      vertex 77.4271 103.237 0
    endloop
  endfacet
  facet normal -0.587785 0.809017 0
    outer loop
      vertex 77.4271 103.237 1
      vertex 77.4271 103.237 0
      vertex 75.9271 102.147 1
    endloop
  endfacet
  facet normal -0.587785 0.809017 0
    outer loop
      vertex 75.9271 102.147 1
      vertex 77.4271 103.237 0
      vertex 75.9271 102.147 0
    endloop
  endfacet
  facet normal 0 1 0
    outer loop
      vertex 75.9271 102.147 1
      vertex 75.9271 102.147 0
      vertex 74.0729 102.147 1
    endloop
  endfacet
  facet normal 0 1 0
    outer loop
      vertex 74.0729 102.147 1
      vertex 75.9271 102.147 0
      vertex 74.0729 102.147 0
    endloop
  endfacet
  facet normal 0.587785 0.809017 0
    outer loop
      vertex 74.0729 102.147 1
      vertex 74.0729 102.147 0
      vertex 72.5729 103.237 1
    endloop
  endfacet
  facet normal 0.587785 0.809017 0
    outer loop
      vertex 72.5729 103.237 1
      vertex 74.0729 102.147 0
      vertex 72.5729 103.237 0
    endloop
  endfacet
  facet normal 0 0 1
    outer loop
      vertex 151 1 1
      vertex 151 101 1
      vertex 80.702 101 1
    endloop
  endfacet
  facet normal 0 0 1
    outer loop
      vertex 77.9079 98.6326 1
      vertex 151 1 1
      vertex 79.584 99.7098 1
    endloop
  endfacet
  facet normal 0 0 1
    outer loop
      vertex 79.584 99.7098 1
      vertex 151 1 1
      vertex 80.702 101 1
    endloop
  endfacet
  facet normal 0 0 1
    outer loop
      vertex 75.9962 98.0712 1
      vertex 151 1 1
      vertex 77.9079 98.6326 1
    endloop
  endfacet
  facet normal 0 0 1
    outer loop
      vertex 74.0038 98.0712 1
      vertex 151 1 1
      vertex 75.9962 98.0712 1
    endloop
  endfacet
  facet normal 0 0 1
    outer loop
      vertex 72.0921 98.6326 1
      vertex 151 1 1
      vertex 74.0038 98.0712 1
    endloop
  endfacet
  facet normal 0 0 1
    outer loop
      vertex 70.416 99.7098 1
      vertex 151 1 1
      vertex 72.0921 98.6326 1
    endloop
  endfacet
  facet normal 0 0 1
    outer loop
      vertex 69.298 101 1
      vertex 151 1 1
      vertex 70.416 99.7098 1
    endloop
  endfacet
  facet normal 0 0 1
    outer loop
      vertex 1 101 1
      vertex 151 1 1
      vertex 69.298 101 1
    endloop
  endfacet
  facet normal 0 0 1
    outer loop
      vertex 1 1 1
      vertex 151 1 1
      vertex 1 101 1
    endloop
  endfacet
  facet normal 0 0 1
    outer loop
      vertex 68.2835 103.028 1
      vertex 69.1112 101.216 1
      vertex 69.298 101 1
    endloop
  endfacet
  facet normal 0 0 1
    outer loop
      vertex 72.0921 98.6326 1
      vertex 68.2835 103.028 1
      vertex 70.416 99.7098 1
    endloop
  endfacet
  facet normal 0 0 1
    outer loop
      vertex 70.416 99.7098 1
      vertex 68.2835 103.028 1
      vertex 69.298 101 1
    endloop
  endfacet
  facet normal 0 0 1
    outer loop
      vertex 74.0038 98.0712 1
      vertex 68.2835 103.028 1
      vertex 72.0921 98.6326 1
    endloop
  endfacet
  facet normal 0 0 1
    outer loop
      vertex 75.9962 98.0712 1
      vertex 68.2835 103.028 1
      vertex 74.0038 98.0712 1
    endloop
  endfacet
  facet normal 0 0 1
    outer loop
      vertex 77.9079 98.6326 1
      vertex 68.2835 103.028 1
      vertex 75.9962 98.0712 1
    endloop
  endfacet
  facet normal 0 0 1
    outer loop
      vertex 79.584 99.7098 1
      vertex 68.2835 103.028 1
      vertex 77.9079 98.6326 1
    endloop
  endfacet
  facet normal 0 0 1
    outer loop
      vertex 80.702 101 1
      vertex 68.2835 103.028 1
      vertex 79.584 99.7098 1
    endloop
  endfacet
  facet normal 0 0 1
    outer loop
      vertex 74.0729 102.147 1
      vertex 68.2835 103.028 1
      vertex 80.702 101 1
    endloop
  endfacet
  facet normal 0 0 1
    outer loop
      vertex 75.9271 102.147 1
      vertex 74.0729 102.147 1
      vertex 80.8888 101.216 1
    endloop
  endfacet
  facet normal 0 0 1
    outer loop
      vertex 72 105 1
      vertex 72.5729 106.763 1
      vertex 68.2835 103.028 1
    endloop
  endfacet
  facet normal 0 0 1
    outer loop
      vertex 72.5729 106.763 1
      vertex 74.0729 107.853 1
      vertex 77.9079 111.367 1
    endloop
  endfacet
  facet normal 0 0 1
    outer loop
      vertex 75.9271 107.853 1
      vertex 77.4271 106.763 1
      vertex 80.8888 108.784 1
    endloop
  endfacet
  facet normal 0 0 1
    outer loop
      vertex 74.0038 111.929 1
      vertex 68.2835 103.028 1
      vertex 75.9962 111.929 1
    endloop
  endfacet
  facet normal 0 0 1
    outer loop
      vertex 72.0921 111.367 1
      vertex 68.2835 103.028 1
      vertex 74.0038 111.929 1
    endloop
  endfacet
  facet normal 0 0 1
    outer loop
      vertex 70.416 110.29 1
      vertex 68.2835 103.028 1
      vertex 72.0921 111.367 1
    endloop
  endfacet
  facet normal 0 0 1
    outer loop
      vertex 69.1112 108.784 1
      vertex 68.2835 103.028 1
      vertex 70.416 110.29 1
    endloop
  endfacet
  facet normal 0 0 1
    outer loop
      vertex 68.2835 106.972 1
      vertex 68.2835 103.028 1
      vertex 69.1112 108.784 1
    endloop
  endfacet
  facet normal 0 0 1
    outer loop
      vertex 68 105 1
      vertex 68.2835 103.028 1
      vertex 68.2835 106.972 1
    endloop
  endfacet
  facet normal 0 0 1
    outer loop
      vertex 77.4271 106.763 1
      vertex 78 105 1
      vertex 81.7165 106.972 1
    endloop
  endfacet
  facet normal 0 0 1
    outer loop
      vertex 75.9962 111.929 1
      vertex 72.5729 106.763 1
      vertex 77.9079 111.367 1
    endloop
  endfacet
  facet normal 0 0 1
    outer loop
      vertex 75.9962 111.929 1
      vertex 68.2835 103.028 1
      vertex 72.5729 106.763 1
    endloop
  endfacet
  facet normal 0 0 1
    outer loop
      vertex 77.9079 111.367 1
      vertex 74.0729 107.853 1
      vertex 79.584 110.29 1
    endloop
  endfacet
  facet normal 0 0 1
    outer loop
      vertex 74.0729 107.853 1
      vertex 75.9271 107.853 1
      vertex 79.584 110.29 1
    endloop
  endfacet
  facet normal 0 0 1
    outer loop
      vertex 74.0729 102.147 1
      vertex 72.5729 103.237 1
      vertex 68.2835 103.028 1
    endloop
  endfacet
  facet normal 0 0 1
    outer loop
      vertex 80.8888 108.784 1
      vertex 77.4271 106.763 1
      vertex 81.7165 106.972 1
    endloop
  endfacet
  facet normal 0 0 1
    outer loop
      vertex 75.9271 107.853 1
      vertex 80.8888 108.784 1
      vertex 79.584 110.29 1
    endloop
  endfacet
  facet normal 0 0 1
    outer loop
      vertex 81.7165 106.972 1
      vertex 78 105 1
      vertex 82 105 1
    endloop
  endfacet
  facet normal 0 0 1
    outer loop
      vertex 82 105 1
      vertex 77.4271 103.237 1
      vertex 81.7165 103.028 1
    endloop
  endfacet
  facet normal 0 0 1
    outer loop
      vertex 81.7165 103.028 1
      vertex 75.9271 102.147 1
      vertex 80.8888 101.216 1
    endloop
  endfacet
  facet normal 0 0 1
    outer loop
      vertex 80.8888 101.216 1
      vertex 74.0729 102.147 1
      vertex 80.702 101 1
    endloop
  endfacet
  facet normal 0 0 1
    outer loop
      vertex 78 105 1
      vertex 77.4271 103.237 1
      vertex 82 105 1
    endloop
  endfacet
  facet normal 0 0 1
    outer loop
      vertex 77.4271 103.237 1
      vertex 75.9271 102.147 1
      vertex 81.7165 103.028 1
    endloop
  endfacet
  facet normal 0 0 1
    outer loop
      vertex 72.5729 103.237 1
      vertex 72 105 1
      vertex 68.2835 103.028 1
    endloop
  endfacet
  facet normal 1 0 0
    outer loop
      vertex 1 101 1
      vertex 1 101 2
      vertex 1 1 2
    endloop
  endfacet
  facet normal 1 0 0
    outer loop
      vertex 1 1 1
      vertex 1 101 1
      vertex 1 1 2
    endloop
  endfacet
  facet normal 0 0 -1
    outer loop
      vertex 2 101 2
      vertex 2 2 2
      vertex 1 101 2
    endloop
  endfacet
  facet normal 0 0 -1
    outer loop
      vertex 1 1 2
      vertex 2 2 2
      vertex 151 1 2
    endloop
  endfacet
  facet normal 0 0 -1
    outer loop
      vertex 151 101 2
      vertex 150 2 2
      vertex 150 101 2
    endloop
  endfacet
  facet normal 0 0 -1
    outer loop
      vertex 151 1 2
      vertex 150 2 2
      vertex 151 101 2
    endloop
  endfacet
  facet normal 0 0 -1
    outer loop
      vertex 2 2 2
      vertex 150 2 2
      vertex 151 1 2
    endloop
  endfacet
  facet normal 0 0 -1
    outer loop
      vertex 1 101 2
      vertex 2 2 2
      vertex 1 1 2
    endloop
  endfacet
  facet normal 1 0 0
    outer loop
      vertex 2 101 2
      vertex 2 101 3
      vertex 2 2 3
    endloop
  endfacet
  facet normal 1 0 0
    outer loop
      vertex 2 2 2
      vertex 2 101 2
      vertex 2 2 3
    endloop
  endfacet
  facet normal 0 1 0
    outer loop
      vertex 150 2 3
      vertex 150 2 2
      vertex 2 2 3
    endloop
  endfacet
  facet normal 0 1 0
    outer loop
      vertex 2 2 3
      vertex 150 2 2
      vertex 2 2 2
    endloop
  endfacet
  facet normal -1 0 0
    outer loop
      vertex 150 101 3
      vertex 150 101 2
      vertex 150 2 3
    endloop
  endfacet
  facet normal -1 0 0
    outer loop
      vertex 150 2 3
      vertex 150 101 2
      vertex 150 2 2
    endloop
  endfacet
  facet normal -1 0 0
    outer loop
      vertex 151 101 2
      vertex 151 101 1
      vertex 151 1 2
    endloop
  endfacet
  facet normal -1 0 0
    outer loop
      vertex 151 1 2
      vertex 151 101 1
      vertex 151 1 1
    endloop
  endfacet
  facet normal 0 1 0
    outer loop
      vertex 151 1 2
      vertex 151 1 1
      vertex 1 1 2
    endloop
  endfacet
  facet normal 0 1 0
    outer loop
      vertex 1 1 2
      vertex 151 1 1
      vertex 1 1 1
    endloop
  endfacet
endsolid OpenSCAD_Model
