solid OpenSCAD_Model
  facet normal -1 0 -1.77321e-016
    outer loop
      vertex -50 0 2
      vertex -50 0.765367 1.84776
      vertex -50 -0.765367 1.84776
    endloop
  endfacet
  facet normal -1 0 -1.77321e-016
    outer loop
      vertex -50 -0.765367 1.84776
      vertex -50 0.765367 1.84776
      vertex -50 1.41421 1.41421
    endloop
  endfacet
  facet normal -1 0 -1.77321e-016
    outer loop
      vertex -50 0.574025 1.38582
      vertex -50 1.41421 1.41421
      vertex -50 1.84776 0.765367
    endloop
  endfacet
  facet normal -1 0 -1.77321e-016
    outer loop
      vertex -50 1.38582 0.574025
      vertex -50 1.84776 0.765367
      vertex -50 2 -1.11022e-014
    endloop
  endfacet
  facet normal -1 0 -1.77321e-016
    outer loop
      vertex -50 1.5 -1.11022e-014
      vertex -50 2 -1.11022e-014
      vertex -50 1.84776 -0.765367
    endloop
  endfacet
  facet normal -1 0 -1.77321e-016
    outer loop
      vertex -50 1.38582 -0.574025
      vertex -50 1.84776 -0.765367
      vertex -50 1.41421 -1.41421
    endloop
  endfacet
  facet normal -1 0 -1.77321e-016
    outer loop
      vertex -50 1.06066 -1.06066
      vertex -50 1.41421 -1.41421
      vertex -50 0.765367 -1.84776
    endloop
  endfacet
  facet normal -1 0 -1.77321e-016
    outer loop
      vertex -50 -0.574025 -1.38582
      vertex -50 0 -2
      vertex -50 -0.765367 -1.84776
    endloop
  endfacet
  facet normal -1 0 -1.77321e-016
    outer loop
      vertex -50 -1.06066 -1.06066
      vertex -50 -0.765367 -1.84776
      vertex -50 -1.41421 -1.41421
    endloop
  endfacet
  facet normal -1 0 -1.77321e-016
    outer loop
      vertex -50 -1.5 -1.11022e-014
      vertex -50 -1.41421 -1.41421
      vertex -50 -1.84776 -0.765367
    endloop
  endfacet
  facet normal -1 0 -1.77321e-016
    outer loop
      vertex -50 -1.38582 0.574025
      vertex -50 -1.84776 -0.765367
      vertex -50 -2 -1.11022e-014
    endloop
  endfacet
  facet normal -1 0 -1.77321e-016
    outer loop
      vertex -50 -0.765367 1.84776
      vertex -50 -2 -1.11022e-014
      vertex -50 -1.84776 0.765367
    endloop
  endfacet
  facet normal -1 0 -1.77321e-016
    outer loop
      vertex -50 -0.765367 1.84776
      vertex -50 -1.84776 0.765367
      vertex -50 -1.41421 1.41421
    endloop
  endfacet
  facet normal -1 0 -1.77321e-016
    outer loop
      vertex -50 -0.574025 1.38582
      vertex -50 -0.765367 1.84776
      vertex -50 0 1.5
    endloop
  endfacet
  facet normal -1 0 -1.77321e-016
    outer loop
      vertex -50 -1.06066 1.06066
      vertex -50 -0.765367 1.84776
      vertex -50 -0.574025 1.38582
    endloop
  endfacet
  facet normal -1 0 -1.77321e-016
    outer loop
      vertex -50 -1.38582 0.574025
      vertex -50 -0.765367 1.84776
      vertex -50 -1.06066 1.06066
    endloop
  endfacet
  facet normal -1 0 -1.77321e-016
    outer loop
      vertex -50 -1.5 -1.11022e-014
      vertex -50 -1.84776 -0.765367
      vertex -50 -1.38582 0.574025
    endloop
  endfacet
  facet normal -1 0 -1.77321e-016
    outer loop
      vertex -50 -0.765367 1.84776
      vertex -50 -1.38582 0.574025
      vertex -50 -2 -1.11022e-014
    endloop
  endfacet
  facet normal -1 0 -1.77321e-016
    outer loop
      vertex -50 -1.38582 -0.574025
      vertex -50 -1.41421 -1.41421
      vertex -50 -1.5 -1.11022e-014
    endloop
  endfacet
  facet normal -1 0 -1.77321e-016
    outer loop
      vertex -50 -1.06066 -1.06066
      vertex -50 -1.41421 -1.41421
      vertex -50 -1.38582 -0.574025
    endloop
  endfacet
  facet normal -1 0 -1.77321e-016
    outer loop
      vertex -50 1.06066 -1.06066
      vertex -50 0.765367 -1.84776
      vertex -50 0.574025 -1.38582
    endloop
  endfacet
  facet normal -1 0 -1.77321e-016
    outer loop
      vertex -50 8.86606e-016 -2
      vertex -50 0.765367 -1.84776
      vertex -50 0 -2
    endloop
  endfacet
  facet normal -1 0 -1.77321e-016
    outer loop
      vertex -50 0.574025 -1.38582
      vertex -50 0.765367 -1.84776
      vertex -50 6.64955e-016 -1.5
    endloop
  endfacet
  facet normal -1 0 -1.77321e-016
    outer loop
      vertex -50 1.38582 -0.574025
      vertex -50 1.41421 -1.41421
      vertex -50 1.06066 -1.06066
    endloop
  endfacet
  facet normal -1 0 -1.77321e-016
    outer loop
      vertex -50 6.64955e-016 -1.5
      vertex -50 0.765367 -1.84776
      vertex -50 8.86606e-016 -2
    endloop
  endfacet
  facet normal -1 0 -1.77321e-016
    outer loop
      vertex -50 1.06066 1.06066
      vertex -50 1.84776 0.765367
      vertex -50 1.38582 0.574025
    endloop
  endfacet
  facet normal -1 0 -1.77321e-016
    outer loop
      vertex -50 0.574025 1.38582
      vertex -50 1.84776 0.765367
      vertex -50 1.06066 1.06066
    endloop
  endfacet
  facet normal -1 0 -1.77321e-016
    outer loop
      vertex -50 -0.765367 1.84776
      vertex -50 1.41421 1.41421
      vertex -50 0.574025 1.38582
    endloop
  endfacet
  facet normal -1 0 -1.77321e-016
    outer loop
      vertex -50 0 1.5
      vertex -50 -0.765367 1.84776
      vertex -50 0.574025 1.38582
    endloop
  endfacet
  facet normal -1 0 -1.77321e-016
    outer loop
      vertex -50 1.38582 0.574025
      vertex -50 2 -1.11022e-014
      vertex -50 1.5 -1.11022e-014
    endloop
  endfacet
  facet normal -1 0 -1.77321e-016
    outer loop
      vertex -50 1.5 -1.11022e-014
      vertex -50 1.84776 -0.765367
      vertex -50 1.38582 -0.574025
    endloop
  endfacet
  facet normal -1 0 -1.77321e-016
    outer loop
      vertex -50 0 -1.5
      vertex -50 0 -2
      vertex -50 -0.574025 -1.38582
    endloop
  endfacet
  facet normal -1 0 -1.77321e-016
    outer loop
      vertex -50 -0.574025 -1.38582
      vertex -50 -0.765367 -1.84776
      vertex -50 -1.06066 -1.06066
    endloop
  endfacet
  facet normal -2.17778e-016 0.19509 0.980785
    outer loop
      vertex -49.6939 0.765367 1.84776
      vertex -50 0.765367 1.84776
      vertex -50 0 2
    endloop
  endfacet
  facet normal -2.17778e-016 -0.19509 0.980785
    outer loop
      vertex -3.54643e-016 0 2
      vertex -50 0 2
      vertex 50 -0.765367 1.84776
    endloop
  endfacet
  facet normal -2.17778e-016 -0.19509 0.980785
    outer loop
      vertex 50 -0.765367 1.84776
      vertex -50 0 2
      vertex -50 -0.765367 1.84776
    endloop
  endfacet
  facet normal -2.17778e-016 -0.19509 0.980785
    outer loop
      vertex 50 0 2
      vertex -3.54643e-016 0 2
      vertex 50 -0.765367 1.84776
    endloop
  endfacet
  facet normal -1.84623e-016 -0.55557 0.83147
    outer loop
      vertex 50 -0.765367 1.84776
      vertex -50 -0.765367 1.84776
      vertex -50 -1.41421 1.41421
    endloop
  endfacet
  facet normal -1.84623e-016 -0.55557 0.83147
    outer loop
      vertex 50 -1.41421 1.41421
      vertex 50 -0.765367 1.84776
      vertex -50 -1.41421 1.41421
    endloop
  endfacet
  facet normal -1.23361e-016 -0.83147 0.55557
    outer loop
      vertex 50 -1.41421 1.41421
      vertex -50 -1.41421 1.41421
      vertex -50 -1.84776 0.765367
    endloop
  endfacet
  facet normal -1.23361e-016 -0.83147 0.55557
    outer loop
      vertex 50 -1.84776 0.765367
      vertex 50 -1.41421 1.41421
      vertex -50 -1.84776 0.765367
    endloop
  endfacet
  facet normal -4.33188e-017 -0.980785 0.19509
    outer loop
      vertex 50 -1.84776 0.765367
      vertex -50 -1.84776 0.765367
      vertex -50 -2 -1.11022e-014
    endloop
  endfacet
  facet normal -4.33188e-017 -0.980785 0.19509
    outer loop
      vertex 50 -2 1.11022e-014
      vertex 50 -1.84776 0.765367
      vertex -50 -2 -1.11022e-014
    endloop
  endfacet
  facet normal 4.33188e-017 -0.980785 -0.19509
    outer loop
      vertex 50 -2 1.11022e-014
      vertex -50 -2 -1.11022e-014
      vertex -50 -1.84776 -0.765367
    endloop
  endfacet
  facet normal 4.33188e-017 -0.980785 -0.19509
    outer loop
      vertex 50 -1.84776 -0.765367
      vertex 50 -2 1.11022e-014
      vertex -50 -1.84776 -0.765367
    endloop
  endfacet
  facet normal 1.23361e-016 -0.83147 -0.55557
    outer loop
      vertex 50 -1.84776 -0.765367
      vertex -50 -1.84776 -0.765367
      vertex -50 -1.41421 -1.41421
    endloop
  endfacet
  facet normal 1.23361e-016 -0.83147 -0.55557
    outer loop
      vertex 50 -1.41421 -1.41421
      vertex 50 -1.84776 -0.765367
      vertex -50 -1.41421 -1.41421
    endloop
  endfacet
  facet normal 1.84623e-016 -0.55557 -0.83147
    outer loop
      vertex -50 -1.41421 -1.41421
      vertex -50 -0.765367 -1.84776
      vertex 50 -1.41421 -1.41421
    endloop
  endfacet
  facet normal 1.84623e-016 -0.55557 -0.83147
    outer loop
      vertex 50 -1.41421 -1.41421
      vertex -50 -0.765367 -1.84776
      vertex 50 -0.765367 -1.84776
    endloop
  endfacet
  facet normal 2.17778e-016 -0.19509 -0.980785
    outer loop
      vertex -50 -0.765367 -1.84776
      vertex -50 0 -2
      vertex 50 -0.765367 -1.84776
    endloop
  endfacet
  facet normal 2.17778e-016 -0.19509 -0.980785
    outer loop
      vertex 50 -0.765367 -1.84776
      vertex -50 0 -2
      vertex 3.54643e-016 0 -2
    endloop
  endfacet
  facet normal 2.17778e-016 -0.19509 -0.980785
    outer loop
      vertex 50 -0.765367 -1.84776
      vertex 3.54643e-016 0 -2
      vertex 50 0 -2
    endloop
  endfacet
  facet normal 2.17778e-016 0.19509 -0.980785
    outer loop
      vertex -50 0.765367 -1.84776
      vertex -50 5.58147e-014 -2
      vertex -50 0 -2
    endloop
  endfacet
  facet normal 2.17778e-016 0.19509 -0.980785
    outer loop
      vertex -50 0.765367 -1.84776
      vertex -49.6939 0.765367 -1.84776
      vertex -50 5.58147e-014 -2
    endloop
  endfacet
  facet normal 2.17778e-016 0.19509 -0.980785
    outer loop
      vertex 3.54643e-016 0 -2
      vertex -50 0 -2
      vertex -50 5.58147e-014 -2
    endloop
  endfacet
  facet normal 1.84623e-016 0.55557 -0.83147
    outer loop
      vertex -50 1.41421 -1.41421
      vertex -49.4343 1.41421 -1.41421
      vertex -50 0.765367 -1.84776
    endloop
  endfacet
  facet normal 1.84623e-016 0.55557 -0.83147
    outer loop
      vertex -50 0.765367 -1.84776
      vertex -49.4343 1.41421 -1.41421
      vertex -49.6939 0.765367 -1.84776
    endloop
  endfacet
  facet normal 1.23361e-016 0.83147 -0.55557
    outer loop
      vertex -50 1.84776 -0.765367
      vertex -49.2609 1.84776 -0.765367
      vertex -50 1.41421 -1.41421
    endloop
  endfacet
  facet normal 1.23361e-016 0.83147 -0.55557
    outer loop
      vertex -50 1.41421 -1.41421
      vertex -49.2609 1.84776 -0.765367
      vertex -49.4343 1.41421 -1.41421
    endloop
  endfacet
  facet normal 4.33188e-017 0.980785 -0.19509
    outer loop
      vertex -50 2 -1.11022e-014
      vertex -49.2 2 -1.09246e-014
      vertex -50 1.84776 -0.765367
    endloop
  endfacet
  facet normal 4.33188e-017 0.980785 -0.19509
    outer loop
      vertex -50 1.84776 -0.765367
      vertex -49.2 2 -1.09246e-014
      vertex -49.2609 1.84776 -0.765367
    endloop
  endfacet
  facet normal -4.33188e-017 0.980785 0.19509
    outer loop
      vertex -50 1.84776 0.765367
      vertex -49.2609 1.84776 0.765367
      vertex -50 2 -1.11022e-014
    endloop
  endfacet
  facet normal -4.33188e-017 0.980785 0.19509
    outer loop
      vertex -50 2 -1.11022e-014
      vertex -49.2609 1.84776 0.765367
      vertex -49.2 2 -1.09246e-014
    endloop
  endfacet
  facet normal -1.23361e-016 0.83147 0.55557
    outer loop
      vertex -50 1.41421 1.41421
      vertex -49.4343 1.41421 1.41421
      vertex -50 1.84776 0.765367
    endloop
  endfacet
  facet normal -1.23361e-016 0.83147 0.55557
    outer loop
      vertex -50 1.84776 0.765367
      vertex -49.4343 1.41421 1.41421
      vertex -49.2609 1.84776 0.765367
    endloop
  endfacet
  facet normal -1.84623e-016 0.55557 0.83147
    outer loop
      vertex -50 1.41421 1.41421
      vertex -50 0.765367 1.84776
      vertex -49.6939 0.765367 1.84776
    endloop
  endfacet
  facet normal -1.84623e-016 0.55557 0.83147
    outer loop
      vertex -49.4343 1.41421 1.41421
      vertex -50 1.41421 1.41421
      vertex -49.6939 0.765367 1.84776
    endloop
  endfacet
  facet normal 2.17778e-016 -0.195091 -0.980785
    outer loop
      vertex -49.7704 0.574025 1.38582
      vertex -50 0 1.5
      vertex -50 0.574025 1.38582
    endloop
  endfacet
  facet normal 2.17778e-016 0.195091 -0.980785
    outer loop
      vertex 50 0 1.5
      vertex 50 -0.574025 1.38582
      vertex -50 0 1.5
    endloop
  endfacet
  facet normal 2.17778e-016 0.195091 -0.980785
    outer loop
      vertex -50 0 1.5
      vertex 50 -0.574025 1.38582
      vertex -50 -0.574025 1.38582
    endloop
  endfacet
  facet normal 1.84623e-016 -0.55557 -0.83147
    outer loop
      vertex -49.5757 1.06066 1.06066
      vertex -49.7704 0.574025 1.38582
      vertex -50 1.06066 1.06066
    endloop
  endfacet
  facet normal 1.84623e-016 -0.55557 -0.83147
    outer loop
      vertex -50 1.06066 1.06066
      vertex -49.7704 0.574025 1.38582
      vertex -50 0.574025 1.38582
    endloop
  endfacet
  facet normal 1.23361e-016 -0.83147 -0.55557
    outer loop
      vertex -50 1.38582 0.574025
      vertex -49.4457 1.38582 0.574025
      vertex -49.5757 1.06066 1.06066
    endloop
  endfacet
  facet normal 1.23361e-016 -0.83147 -0.55557
    outer loop
      vertex -50 1.06066 1.06066
      vertex -50 1.38582 0.574025
      vertex -49.5757 1.06066 1.06066
    endloop
  endfacet
  facet normal 4.33189e-017 -0.980785 -0.195091
    outer loop
      vertex -50 1.5 -1.11022e-014
      vertex -49.4 1.5 -1.0969e-014
      vertex -49.4457 1.38582 0.574025
    endloop
  endfacet
  facet normal 4.33189e-017 -0.980785 -0.195091
    outer loop
      vertex -50 1.38582 0.574025
      vertex -50 1.5 -1.11022e-014
      vertex -49.4457 1.38582 0.574025
    endloop
  endfacet
  facet normal -4.33189e-017 -0.980785 0.195091
    outer loop
      vertex -50 1.38582 -0.574025
      vertex -49.4457 1.38582 -0.574025
      vertex -49.4 1.5 -1.0969e-014
    endloop
  endfacet
  facet normal -4.33189e-017 -0.980785 0.195091
    outer loop
      vertex -50 1.5 -1.11022e-014
      vertex -50 1.38582 -0.574025
      vertex -49.4 1.5 -1.0969e-014
    endloop
  endfacet
  facet normal -1.23361e-016 -0.83147 0.55557
    outer loop
      vertex -50 1.06066 -1.06066
      vertex -49.5757 1.06066 -1.06066
      vertex -49.4457 1.38582 -0.574025
    endloop
  endfacet
  facet normal -1.23361e-016 -0.83147 0.55557
    outer loop
      vertex -50 1.38582 -0.574025
      vertex -50 1.06066 -1.06066
      vertex -49.4457 1.38582 -0.574025
    endloop
  endfacet
  facet normal -1.84623e-016 -0.55557 0.83147
    outer loop
      vertex -50 0.574025 -1.38582
      vertex -49.7704 0.574025 -1.38582
      vertex -49.5757 1.06066 -1.06066
    endloop
  endfacet
  facet normal -1.84623e-016 -0.55557 0.83147
    outer loop
      vertex -50 1.06066 -1.06066
      vertex -50 0.574025 -1.38582
      vertex -49.5757 1.06066 -1.06066
    endloop
  endfacet
  facet normal -2.17778e-016 -0.195091 0.980785
    outer loop
      vertex -50 6.64955e-016 -1.5
      vertex -49.7704 0.574025 -1.38582
      vertex -50 0.574025 -1.38582
    endloop
  endfacet
  facet normal -0.928477 0.371391 0
    outer loop
      vertex -49.7704 0.574025 -1.38582
      vertex -49.4 1.5 -1.0969e-014
      vertex -49.4457 1.38582 -0.574025
    endloop
  endfacet
  facet normal -0.928477 0.371391 0
    outer loop
      vertex -50 6.64955e-016 -1.5
      vertex -49.7704 0.574025 1.38582
      vertex -49.5757 1.06066 1.06066
    endloop
  endfacet
  facet normal -0.928477 0.371391 0
    outer loop
      vertex -50 6.64955e-016 -1.5
      vertex -50 0 1.5
      vertex -49.7704 0.574025 1.38582
    endloop
  endfacet
  facet normal -0.928477 0.371391 0
    outer loop
      vertex -50 0 -2
      vertex -50 0 1.5
      vertex -50 6.64955e-016 -1.5
    endloop
  endfacet
  facet normal -0.928477 0.371391 0
    outer loop
      vertex -50 0 -2
      vertex -50 6.64955e-016 -1.5
      vertex -50 8.86606e-016 -2
    endloop
  endfacet
  facet normal -0.928477 0.371391 0
    outer loop
      vertex -49.7704 0.574025 -1.38582
      vertex -49.4457 1.38582 -0.574025
      vertex -49.5757 1.06066 -1.06066
    endloop
  endfacet
  facet normal -0.928477 0.371391 0
    outer loop
      vertex -50 6.64955e-016 -1.5
      vertex -49.5757 1.06066 1.06066
      vertex -49.4457 1.38582 0.574025
    endloop
  endfacet
  facet normal -0.928477 0.371391 0
    outer loop
      vertex -50 6.64955e-016 -1.5
      vertex -49.4457 1.38582 0.574025
      vertex -49.4 1.5 -1.0969e-014
    endloop
  endfacet
  facet normal -0.928477 0.371391 0
    outer loop
      vertex -50 6.64955e-016 -1.5
      vertex -49.4 1.5 -1.0969e-014
      vertex -49.7704 0.574025 -1.38582
    endloop
  endfacet
  facet normal 0 -1 0
    outer loop
      vertex -50 0 1.5
      vertex -50 0 -2
      vertex -50 0 -1.5
    endloop
  endfacet
  facet normal 0 -1 0
    outer loop
      vertex 50 0 1.5
      vertex -50 0 1.5
      vertex 50 0 -1.5
    endloop
  endfacet
  facet normal 0 -1 0
    outer loop
      vertex 50 0 2
      vertex 50 0 1.5
      vertex 50 0 -1.5
    endloop
  endfacet
  facet normal 0 -1 0
    outer loop
      vertex -50 0 -1.5
      vertex 50 0 -1.5
      vertex -50 0 1.5
    endloop
  endfacet
  facet normal -2.17778e-016 0.195091 0.980785
    outer loop
      vertex -50 -0.574025 -1.38582
      vertex 50 -0.574025 -1.38582
      vertex -50 0 -1.5
    endloop
  endfacet
  facet normal -2.17778e-016 0.195091 0.980785
    outer loop
      vertex -50 0 -1.5
      vertex 50 -0.574025 -1.38582
      vertex 50 0 -1.5
    endloop
  endfacet
  facet normal -1.84623e-016 0.55557 0.83147
    outer loop
      vertex 50 -1.06066 -1.06066
      vertex 50 -0.574025 -1.38582
      vertex -50 -0.574025 -1.38582
    endloop
  endfacet
  facet normal -1.84623e-016 0.55557 0.83147
    outer loop
      vertex -50 -1.06066 -1.06066
      vertex 50 -1.06066 -1.06066
      vertex -50 -0.574025 -1.38582
    endloop
  endfacet
  facet normal -1.23361e-016 0.83147 0.55557
    outer loop
      vertex 50 -1.06066 -1.06066
      vertex -50 -1.06066 -1.06066
      vertex 50 -1.38582 -0.574025
    endloop
  endfacet
  facet normal -1.23361e-016 0.83147 0.55557
    outer loop
      vertex 50 -1.38582 -0.574025
      vertex -50 -1.06066 -1.06066
      vertex -50 -1.38582 -0.574025
    endloop
  endfacet
  facet normal -4.33189e-017 0.980785 0.195091
    outer loop
      vertex 50 -1.38582 -0.574025
      vertex -50 -1.38582 -0.574025
      vertex 50 -1.5 1.11022e-014
    endloop
  endfacet
  facet normal -4.33189e-017 0.980785 0.195091
    outer loop
      vertex 50 -1.5 1.11022e-014
      vertex -50 -1.38582 -0.574025
      vertex -50 -1.5 -1.11022e-014
    endloop
  endfacet
  facet normal 4.33189e-017 0.980785 -0.195091
    outer loop
      vertex 50 -1.5 1.11022e-014
      vertex -50 -1.5 -1.11022e-014
      vertex 50 -1.38582 0.574025
    endloop
  endfacet
  facet normal 4.33189e-017 0.980785 -0.195091
    outer loop
      vertex 50 -1.38582 0.574025
      vertex -50 -1.5 -1.11022e-014
      vertex -50 -1.38582 0.574025
    endloop
  endfacet
  facet normal 1.23361e-016 0.83147 -0.55557
    outer loop
      vertex 50 -1.38582 0.574025
      vertex -50 -1.38582 0.574025
      vertex 50 -1.06066 1.06066
    endloop
  endfacet
  facet normal 1.23361e-016 0.83147 -0.55557
    outer loop
      vertex 50 -1.06066 1.06066
      vertex -50 -1.38582 0.574025
      vertex -50 -1.06066 1.06066
    endloop
  endfacet
  facet normal 1.84623e-016 0.55557 -0.83147
    outer loop
      vertex 50 -1.06066 1.06066
      vertex -50 -1.06066 1.06066
      vertex 50 -0.574025 1.38582
    endloop
  endfacet
  facet normal 1.84623e-016 0.55557 -0.83147
    outer loop
      vertex 50 -0.574025 1.38582
      vertex -50 -1.06066 1.06066
      vertex -50 -0.574025 1.38582
    endloop
  endfacet
  facet normal -0.928477 0.371391 0
    outer loop
      vertex -49.6939 0.765367 1.84776
      vertex -50 0 2
      vertex 0 125 2
    endloop
  endfacet
  facet normal -0.928477 0.371391 0
    outer loop
      vertex -49.6939 0.765367 1.84776
      vertex 0 125 2
      vertex 0 125 -2
    endloop
  endfacet
  facet normal -0.928477 0.371391 0
    outer loop
      vertex -49.6939 0.765367 -1.84776
      vertex 0 125 -2
      vertex -50 5.58147e-014 -2
    endloop
  endfacet
  facet normal -0.928477 0.371391 0
    outer loop
      vertex -49.4343 1.41421 -1.41421
      vertex 0 125 -2
      vertex -49.6939 0.765367 -1.84776
    endloop
  endfacet
  facet normal -0.928477 0.371391 0
    outer loop
      vertex -49.2609 1.84776 -0.765367
      vertex 0 125 -2
      vertex -49.4343 1.41421 -1.41421
    endloop
  endfacet
  facet normal -0.928477 0.371391 0
    outer loop
      vertex -49.2 2 -1.09246e-014
      vertex 0 125 -2
      vertex -49.2609 1.84776 -0.765367
    endloop
  endfacet
  facet normal -0.928477 0.371391 0
    outer loop
      vertex -49.2609 1.84776 0.765367
      vertex 0 125 -2
      vertex -49.2 2 -1.09246e-014
    endloop
  endfacet
  facet normal -0.928477 0.371391 0
    outer loop
      vertex -49.4343 1.41421 1.41421
      vertex 0 125 -2
      vertex -49.2609 1.84776 0.765367
    endloop
  endfacet
  facet normal -0.928477 0.371391 0
    outer loop
      vertex -49.6939 0.765367 1.84776
      vertex 0 125 -2
      vertex -49.4343 1.41421 1.41421
    endloop
  endfacet
  facet normal 0 0 1
    outer loop
      vertex 0 125 2
      vertex -50 0 2
      vertex -3.54643e-016 0 2
    endloop
  endfacet
  facet normal 0 0 1
    outer loop
      vertex 50 5.58147e-014 2
      vertex 0 125 2
      vertex -3.54643e-016 0 2
    endloop
  endfacet
  facet normal -2.17778e-016 0.19509 0.980785
    outer loop
      vertex 50 5.58147e-014 2
      vertex -3.54643e-016 0 2
      vertex 50 0 2
    endloop
  endfacet
  facet normal -2.17778e-016 0.19509 0.980785
    outer loop
      vertex 50 0.765367 1.84776
      vertex 50 5.58147e-014 2
      vertex 50 0 2
    endloop
  endfacet
  facet normal -2.17778e-016 0.19509 0.980785
    outer loop
      vertex 49.6939 0.765367 1.84776
      vertex 50 5.58147e-014 2
      vertex 50 0.765367 1.84776
    endloop
  endfacet
  facet normal 1 0 1.77321e-016
    outer loop
      vertex 50 8.86606e-016 2
      vertex 50 6.64955e-016 1.5
      vertex 50 0.765367 1.84776
    endloop
  endfacet
  facet normal 1 0 1.77321e-016
    outer loop
      vertex 50 -1.5 1.11022e-014
      vertex 50 -1.38582 0.574025
      vertex 50 -2 1.11022e-014
    endloop
  endfacet
  facet normal 1 0 1.77321e-016
    outer loop
      vertex 50 1.38582 -0.574025
      vertex 50 1.06066 -1.06066
      vertex 50 1.41421 -1.41421
    endloop
  endfacet
  facet normal 1 0 1.77321e-016
    outer loop
      vertex 50 1.84776 0.765367
      vertex 50 0.765367 1.84776
      vertex 50 2 1.11022e-014
    endloop
  endfacet
  facet normal 1 0 1.77321e-016
    outer loop
      vertex 50 1.41421 1.41421
      vertex 50 0.765367 1.84776
      vertex 50 1.84776 0.765367
    endloop
  endfacet
  facet normal 1 0 1.77321e-016
    outer loop
      vertex 50 0.765367 1.84776
      vertex 50 0 2
      vertex 50 8.86606e-016 2
    endloop
  endfacet
  facet normal 1 0 1.77321e-016
    outer loop
      vertex 50 -1.38582 -0.574025
      vertex 50 -1.5 1.11022e-014
      vertex 50 -1.84776 -0.765367
    endloop
  endfacet
  facet normal 1 0 1.77321e-016
    outer loop
      vertex 50 1.06066 -1.06066
      vertex 50 0.574025 -1.38582
      vertex 50 0.765367 -1.84776
    endloop
  endfacet
  facet normal 1 0 1.77321e-016
    outer loop
      vertex 50 1.38582 0.574025
      vertex 50 1.5 1.11022e-014
      vertex 50 1.84776 -0.765367
    endloop
  endfacet
  facet normal 1 0 1.77321e-016
    outer loop
      vertex 50 2 1.11022e-014
      vertex 50 1.38582 0.574025
      vertex 50 1.84776 -0.765367
    endloop
  endfacet
  facet normal 1 0 1.77321e-016
    outer loop
      vertex 50 2 1.11022e-014
      vertex 50 0.765367 1.84776
      vertex 50 1.38582 0.574025
    endloop
  endfacet
  facet normal 1 0 1.77321e-016
    outer loop
      vertex 50 1.84776 -0.765367
      vertex 50 1.5 1.11022e-014
      vertex 50 1.41421 -1.41421
    endloop
  endfacet
  facet normal 1 0 1.77321e-016
    outer loop
      vertex 50 1.5 1.11022e-014
      vertex 50 1.38582 -0.574025
      vertex 50 1.41421 -1.41421
    endloop
  endfacet
  facet normal 1 0 1.77321e-016
    outer loop
      vertex 50 1.41421 -1.41421
      vertex 50 1.06066 -1.06066
      vertex 50 0.765367 -1.84776
    endloop
  endfacet
  facet normal 1 0 1.77321e-016
    outer loop
      vertex 50 1.06066 1.06066
      vertex 50 1.38582 0.574025
      vertex 50 0.765367 1.84776
    endloop
  endfacet
  facet normal 1 0 1.77321e-016
    outer loop
      vertex 50 0.765367 -1.84776
      vertex 50 0.574025 -1.38582
      vertex 50 0 -2
    endloop
  endfacet
  facet normal 1 0 1.77321e-016
    outer loop
      vertex 50 0 -2
      vertex 50 0 -1.5
      vertex 50 -0.765367 -1.84776
    endloop
  endfacet
  facet normal 1 0 1.77321e-016
    outer loop
      vertex 50 0 -1.5
      vertex 50 -0.574025 -1.38582
      vertex 50 -0.765367 -1.84776
    endloop
  endfacet
  facet normal 1 0 1.77321e-016
    outer loop
      vertex 50 -0.765367 -1.84776
      vertex 50 -1.06066 -1.06066
      vertex 50 -1.41421 -1.41421
    endloop
  endfacet
  facet normal 1 0 1.77321e-016
    outer loop
      vertex 50 -1.41421 -1.41421
      vertex 50 -1.38582 -0.574025
      vertex 50 -1.84776 -0.765367
    endloop
  endfacet
  facet normal 1 0 1.77321e-016
    outer loop
      vertex 50 0.574025 -1.38582
      vertex 50 0 -1.5
      vertex 50 0 -2
    endloop
  endfacet
  facet normal 1 0 1.77321e-016
    outer loop
      vertex 50 -1.84776 -0.765367
      vertex 50 -1.5 1.11022e-014
      vertex 50 -2 1.11022e-014
    endloop
  endfacet
  facet normal 1 0 1.77321e-016
    outer loop
      vertex 50 -0.574025 -1.38582
      vertex 50 -1.06066 -1.06066
      vertex 50 -0.765367 -1.84776
    endloop
  endfacet
  facet normal 1 0 1.77321e-016
    outer loop
      vertex 50 -2 1.11022e-014
      vertex 50 -1.38582 0.574025
      vertex 50 -1.84776 0.765367
    endloop
  endfacet
  facet normal 1 0 1.77321e-016
    outer loop
      vertex 50 -1.38582 0.574025
      vertex 50 -1.06066 1.06066
      vertex 50 -1.84776 0.765367
    endloop
  endfacet
  facet normal 1 0 1.77321e-016
    outer loop
      vertex 50 -1.84776 0.765367
      vertex 50 -0.574025 1.38582
      vertex 50 -1.41421 1.41421
    endloop
  endfacet
  facet normal 1 0 1.77321e-016
    outer loop
      vertex 50 -1.06066 1.06066
      vertex 50 -0.574025 1.38582
      vertex 50 -1.84776 0.765367
    endloop
  endfacet
  facet normal 1 0 1.77321e-016
    outer loop
      vertex 50 0 1.5
      vertex 50 -1.41421 1.41421
      vertex 50 -0.574025 1.38582
    endloop
  endfacet
  facet normal 1 0 1.77321e-016
    outer loop
      vertex 50 0 1.5
      vertex 50 -0.765367 1.84776
      vertex 50 -1.41421 1.41421
    endloop
  endfacet
  facet normal 1 0 1.77321e-016
    outer loop
      vertex 50 0 1.5
      vertex 50 0 2
      vertex 50 -0.765367 1.84776
    endloop
  endfacet
  facet normal 1 0 1.77321e-016
    outer loop
      vertex 50 6.64955e-016 1.5
      vertex 50 0.574025 1.38582
      vertex 50 0.765367 1.84776
    endloop
  endfacet
  facet normal 1 0 1.77321e-016
    outer loop
      vertex 50 -1.06066 -1.06066
      vertex 50 -1.38582 -0.574025
      vertex 50 -1.41421 -1.41421
    endloop
  endfacet
  facet normal 1 0 1.77321e-016
    outer loop
      vertex 50 0.574025 1.38582
      vertex 50 1.06066 1.06066
      vertex 50 0.765367 1.84776
    endloop
  endfacet
  facet normal 2.17778e-016 0.19509 -0.980785
    outer loop
      vertex 49.6939 0.765367 -1.84776
      vertex 50 0.765367 -1.84776
      vertex 50 0 -2
    endloop
  endfacet
  facet normal 0.928477 0.371391 0
    outer loop
      vertex 50 0 -2
      vertex 0 125 -2
      vertex 0 125 2
    endloop
  endfacet
  facet normal 0.928477 0.371391 0
    outer loop
      vertex 49.6939 0.765367 -1.84776
      vertex 50 0 -2
      vertex 0 125 2
    endloop
  endfacet
  facet normal 0.928477 0.371391 0
    outer loop
      vertex 50 5.58147e-014 2
      vertex 49.6939 0.765367 1.84776
      vertex 0 125 2
    endloop
  endfacet
  facet normal 0.928477 0.371391 0
    outer loop
      vertex 49.6939 0.765367 1.84776
      vertex 49.4343 1.41421 1.41421
      vertex 0 125 2
    endloop
  endfacet
  facet normal 0.928477 0.371391 0
    outer loop
      vertex 49.4343 1.41421 1.41421
      vertex 49.2609 1.84776 0.765367
      vertex 0 125 2
    endloop
  endfacet
  facet normal 0.928477 0.371391 0
    outer loop
      vertex 49.2609 1.84776 0.765367
      vertex 49.2 2 1.09246e-014
      vertex 0 125 2
    endloop
  endfacet
  facet normal 0.928477 0.371391 0
    outer loop
      vertex 49.2 2 1.09246e-014
      vertex 49.2609 1.84776 -0.765367
      vertex 0 125 2
    endloop
  endfacet
  facet normal 0.928477 0.371391 0
    outer loop
      vertex 49.2609 1.84776 -0.765367
      vertex 49.4343 1.41421 -1.41421
      vertex 0 125 2
    endloop
  endfacet
  facet normal 0.928477 0.371391 0
    outer loop
      vertex 49.4343 1.41421 -1.41421
      vertex 49.6939 0.765367 -1.84776
      vertex 0 125 2
    endloop
  endfacet
  facet normal 0 0 -1
    outer loop
      vertex -50 5.58147e-014 -2
      vertex 0 125 -2
      vertex 3.54643e-016 0 -2
    endloop
  endfacet
  facet normal 0 0 -1
    outer loop
      vertex 3.54643e-016 0 -2
      vertex 0 125 -2
      vertex 50 0 -2
    endloop
  endfacet
  facet normal 0.928477 0.371391 0
    outer loop
      vertex 49.4457 1.38582 -0.574025
      vertex 49.4 1.5 1.0969e-014
      vertex 49.4457 1.38582 0.574025
    endloop
  endfacet
  facet normal 0.928477 0.371391 0
    outer loop
      vertex 49.7704 0.574025 1.38582
      vertex 49.4457 1.38582 -0.574025
      vertex 49.5757 1.06066 1.06066
    endloop
  endfacet
  facet normal 0.928477 0.371391 0
    outer loop
      vertex 49.5757 1.06066 1.06066
      vertex 49.4457 1.38582 -0.574025
      vertex 49.4457 1.38582 0.574025
    endloop
  endfacet
  facet normal 0.928477 0.371391 0
    outer loop
      vertex 50 6.64955e-016 1.5
      vertex 49.4457 1.38582 -0.574025
      vertex 49.7704 0.574025 1.38582
    endloop
  endfacet
  facet normal 0.928477 0.371391 0
    outer loop
      vertex 50 0 -1.5
      vertex 49.4457 1.38582 -0.574025
      vertex 50 6.64955e-016 1.5
    endloop
  endfacet
  facet normal 0.928477 0.371391 0
    outer loop
      vertex 50 0 2
      vertex 50 6.64955e-016 1.5
      vertex 50 8.86606e-016 2
    endloop
  endfacet
  facet normal 0.928477 0.371391 0
    outer loop
      vertex 50 0 -1.5
      vertex 50 6.64955e-016 1.5
      vertex 50 0 2
    endloop
  endfacet
  facet normal 0.928477 0.371391 0
    outer loop
      vertex 49.7704 0.574025 -1.38582
      vertex 49.4457 1.38582 -0.574025
      vertex 50 0 -1.5
    endloop
  endfacet
  facet normal 0.928477 0.371391 0
    outer loop
      vertex 49.5757 1.06066 -1.06066
      vertex 49.4457 1.38582 -0.574025
      vertex 49.7704 0.574025 -1.38582
    endloop
  endfacet
  facet normal -2.17778e-016 -0.195091 0.980785
    outer loop
      vertex 49.7704 0.574025 -1.38582
      vertex 50 0 -1.5
      vertex 50 0.574025 -1.38582
    endloop
  endfacet
  facet normal -1.84623e-016 0.55557 0.83147
    outer loop
      vertex 50 1.41421 1.41421
      vertex 49.4343 1.41421 1.41421
      vertex 49.6939 0.765367 1.84776
    endloop
  endfacet
  facet normal -1.84623e-016 0.55557 0.83147
    outer loop
      vertex 50 0.765367 1.84776
      vertex 50 1.41421 1.41421
      vertex 49.6939 0.765367 1.84776
    endloop
  endfacet
  facet normal -1.23361e-016 0.83147 0.55557
    outer loop
      vertex 49.2609 1.84776 0.765367
      vertex 49.4343 1.41421 1.41421
      vertex 50 1.84776 0.765367
    endloop
  endfacet
  facet normal -1.23361e-016 0.83147 0.55557
    outer loop
      vertex 50 1.84776 0.765367
      vertex 49.4343 1.41421 1.41421
      vertex 50 1.41421 1.41421
    endloop
  endfacet
  facet normal -4.33188e-017 0.980785 0.19509
    outer loop
      vertex 49.2 2 1.09246e-014
      vertex 49.2609 1.84776 0.765367
      vertex 50 2 1.11022e-014
    endloop
  endfacet
  facet normal -4.33188e-017 0.980785 0.19509
    outer loop
      vertex 50 2 1.11022e-014
      vertex 49.2609 1.84776 0.765367
      vertex 50 1.84776 0.765367
    endloop
  endfacet
  facet normal 4.33188e-017 0.980785 -0.19509
    outer loop
      vertex 49.2 2 1.09246e-014
      vertex 50 2 1.11022e-014
      vertex 49.2609 1.84776 -0.765367
    endloop
  endfacet
  facet normal 4.33188e-017 0.980785 -0.19509
    outer loop
      vertex 49.2609 1.84776 -0.765367
      vertex 50 2 1.11022e-014
      vertex 50 1.84776 -0.765367
    endloop
  endfacet
  facet normal 1.23361e-016 0.83147 -0.55557
    outer loop
      vertex 49.2609 1.84776 -0.765367
      vertex 50 1.84776 -0.765367
      vertex 49.4343 1.41421 -1.41421
    endloop
  endfacet
  facet normal 1.23361e-016 0.83147 -0.55557
    outer loop
      vertex 49.4343 1.41421 -1.41421
      vertex 50 1.84776 -0.765367
      vertex 50 1.41421 -1.41421
    endloop
  endfacet
  facet normal 1.84623e-016 0.55557 -0.83147
    outer loop
      vertex 49.4343 1.41421 -1.41421
      vertex 50 1.41421 -1.41421
      vertex 49.6939 0.765367 -1.84776
    endloop
  endfacet
  facet normal 1.84623e-016 0.55557 -0.83147
    outer loop
      vertex 49.6939 0.765367 -1.84776
      vertex 50 1.41421 -1.41421
      vertex 50 0.765367 -1.84776
    endloop
  endfacet
  facet normal -1.84623e-016 -0.55557 0.83147
    outer loop
      vertex 49.7704 0.574025 -1.38582
      vertex 50 0.574025 -1.38582
      vertex 50 1.06066 -1.06066
    endloop
  endfacet
  facet normal -1.84623e-016 -0.55557 0.83147
    outer loop
      vertex 49.5757 1.06066 -1.06066
      vertex 49.7704 0.574025 -1.38582
      vertex 50 1.06066 -1.06066
    endloop
  endfacet
  facet normal -1.23361e-016 -0.83147 0.55557
    outer loop
      vertex 49.5757 1.06066 -1.06066
      vertex 50 1.06066 -1.06066
      vertex 50 1.38582 -0.574025
    endloop
  endfacet
  facet normal -1.23361e-016 -0.83147 0.55557
    outer loop
      vertex 49.4457 1.38582 -0.574025
      vertex 49.5757 1.06066 -1.06066
      vertex 50 1.38582 -0.574025
    endloop
  endfacet
  facet normal -4.33189e-017 -0.980785 0.195091
    outer loop
      vertex 49.4457 1.38582 -0.574025
      vertex 50 1.38582 -0.574025
      vertex 50 1.5 1.11022e-014
    endloop
  endfacet
  facet normal -4.33189e-017 -0.980785 0.195091
    outer loop
      vertex 49.4 1.5 1.0969e-014
      vertex 49.4457 1.38582 -0.574025
      vertex 50 1.5 1.11022e-014
    endloop
  endfacet
  facet normal 4.33189e-017 -0.980785 -0.195091
    outer loop
      vertex 50 1.5 1.11022e-014
      vertex 50 1.38582 0.574025
      vertex 49.4457 1.38582 0.574025
    endloop
  endfacet
  facet normal 4.33189e-017 -0.980785 -0.195091
    outer loop
      vertex 49.4 1.5 1.0969e-014
      vertex 50 1.5 1.11022e-014
      vertex 49.4457 1.38582 0.574025
    endloop
  endfacet
  facet normal 1.23361e-016 -0.83147 -0.55557
    outer loop
      vertex 50 1.38582 0.574025
      vertex 50 1.06066 1.06066
      vertex 49.5757 1.06066 1.06066
    endloop
  endfacet
  facet normal 1.23361e-016 -0.83147 -0.55557
    outer loop
      vertex 49.4457 1.38582 0.574025
      vertex 50 1.38582 0.574025
      vertex 49.5757 1.06066 1.06066
    endloop
  endfacet
  facet normal 1.84623e-016 -0.55557 -0.83147
    outer loop
      vertex 50 0.574025 1.38582
      vertex 49.7704 0.574025 1.38582
      vertex 50 1.06066 1.06066
    endloop
  endfacet
  facet normal 1.84623e-016 -0.55557 -0.83147
    outer loop
      vertex 50 1.06066 1.06066
      vertex 49.7704 0.574025 1.38582
      vertex 49.5757 1.06066 1.06066
    endloop
  endfacet
  facet normal 2.17778e-016 -0.195091 -0.980785
    outer loop
      vertex 50 0.574025 1.38582
      vertex 50 6.64955e-016 1.5
      vertex 49.7704 0.574025 1.38582
    endloop
  endfacet
endsolid OpenSCAD_Model
